<svg width="1070" height="54" viewBox="0 0 1070 54" fill="none" xmlns="http://www.w3.org/2000/svg">
<mask id="path-1-inside-1_434_1194" fill="white">
<path d="M1069.28 101.17C1069.28 45.3344 830.094 0.0681152 534.995 0.0681152C239.897 0.0681152 0.71875 45.3525 0.71875 101.17"/>
</mask>
<path d="M1070.19 101.17C1070.19 93.8421 1066.26 86.8044 1059.04 80.13C1051.82 73.4545 1041.23 67.058 1027.67 60.9905C1000.54 48.8528 961.338 37.9441 912.968 28.7908C816.213 10.4814 682.583 -0.837573 534.995 -0.837573V0.973804C682.506 0.973804 816.018 12.2879 912.631 30.5706C960.945 39.7134 999.986 50.5905 1026.93 62.644C1040.4 68.672 1050.8 74.9726 1057.81 81.4599C1064.83 87.9482 1068.37 94.5391 1068.37 101.17H1070.19ZM534.995 -0.837573C387.407 -0.837573 253.779 10.486 157.027 28.7976C108.658 37.9521 69.4594 48.8613 42.3314 60.9982C28.7704 67.0652 18.1756 73.4609 10.9574 80.1351C3.74046 86.8083 -0.186938 93.8443 -0.186938 101.17H1.62444C1.62444 94.5415 5.17136 87.9523 12.1872 81.4651C19.2018 74.9791 29.5982 68.6793 43.0711 62.6516C70.0109 50.5989 109.05 39.7213 157.364 30.5774C253.975 12.2925 387.485 0.973804 534.995 0.973804V-0.837573Z" fill="#82F7FF" mask="url(#path-1-inside-1_434_1194)"/>
</svg>
