<svg width="190" height="18" viewBox="0 0 190 18" fill="none" xmlns="http://www.w3.org/2000/svg">
<path d="M12.1651 14V8.618H4.69505V14H0.987055V0.608H4.69505V5.576H12.1651V0.608H15.8731V14H12.1651ZM23.6984 12.002C25.7504 12.002 26.4524 10.706 26.4524 9.95V9.176C26.1464 9.302 25.2644 9.482 24.2564 9.644C22.5644 9.932 22.0244 10.166 22.0244 10.868V10.904C22.0244 11.534 22.4744 12.002 23.6984 12.002ZM26.5604 12.614C26.1284 13.136 25.0484 14.198 22.7084 14.198H22.4204C19.6304 14.198 18.4784 12.686 18.4784 11.03V10.958C18.4784 9.23 19.5764 8.168 22.9604 7.88L25.6964 7.646C26.2544 7.592 26.4524 7.412 26.4524 6.998C26.4524 6.53 26.3084 6.026 24.3644 6.026C22.5284 6.026 22.3484 6.746 22.3484 7.124H18.7484V7.088C18.7484 6.098 19.1444 3.776 24.0584 3.776H24.6164C29.5664 3.776 29.8724 5.81 29.8724 7.142V10.436C29.8724 11.066 29.9984 11.318 30.7004 11.318H31.0784V14H28.2344C27.1904 14 26.7044 13.262 26.5604 12.614ZM33.0801 14V4.01H36.5901V11.336H39.6861V4.01H43.1961V11.336H46.2921V4.01H49.8021V14H33.0801ZM61.1388 7.952L56.3148 14H52.7148V4.01H56.2248V10.058L61.0488 4.01H64.6488V14H61.1388V7.952ZM72.7715 14V4.01H84.3275V14H80.8175V6.674H76.2815V14H72.7715ZM91.9543 12.002C94.0063 12.002 94.7083 10.706 94.7083 9.95V9.176C94.4023 9.302 93.5203 9.482 92.5123 9.644C90.8203 9.932 90.2803 10.166 90.2803 10.868V10.904C90.2803 11.534 90.7303 12.002 91.9543 12.002ZM94.8163 12.614C94.3843 13.136 93.3043 14.198 90.9643 14.198H90.6763C87.8863 14.198 86.7343 12.686 86.7343 11.03V10.958C86.7343 9.23 87.8323 8.168 91.2163 7.88L93.9523 7.646C94.5103 7.592 94.7083 7.412 94.7083 6.998C94.7083 6.53 94.5643 6.026 92.6203 6.026C90.7843 6.026 90.6043 6.746 90.6043 7.124H87.0043V7.088C87.0043 6.098 87.4003 3.776 92.3143 3.776H92.8723C97.8223 3.776 98.1283 5.81 98.1283 7.142V10.436C98.1283 11.066 98.2543 11.318 98.9563 11.318H99.3343V14H96.4903C95.4463 14 94.9603 13.262 94.8163 12.614ZM110.516 9.014V8.96C110.516 7.88 110.012 6.422 107.816 6.422H107.636C105.53 6.422 104.864 7.808 104.864 8.96V9.014C104.864 10.112 105.53 11.552 107.636 11.552H107.816C110.012 11.552 110.516 10.04 110.516 9.014ZM101.372 17.438V4.01H104.846V5.288C105.278 4.82 106.592 3.812 108.86 3.812H109.094C112.91 3.812 114.152 6.422 114.152 8.798V9.104C114.152 11.282 112.874 14.198 109.076 14.198H108.824C106.538 14.198 105.314 13.154 104.882 12.722V17.438H101.372ZM119.456 14V6.674H115.586V4.01H126.836V6.674H122.966V14H119.456ZM132.25 14H128.74V4.01H132.25V7.646H137.146V4.01H140.656V14H137.146V10.31H132.25V14ZM149.39 6.08C147.572 6.08 146.888 6.818 146.708 7.862H152C152 7.124 151.64 6.08 149.39 6.08ZM152.072 10.886H155.726C155.726 11.714 155.078 14.234 149.912 14.234H149.246C144.314 14.234 143.09 11.534 143.09 9.14V8.888C143.09 6.638 144.206 3.794 148.94 3.794H149.732C154.844 3.794 155.762 6.638 155.762 9.428V9.752H146.672C146.816 10.904 147.554 11.84 149.696 11.84C151.73 11.84 151.982 11.048 152.072 10.886ZM148.814 0.373999V2.894H145.376V0.373999H148.814ZM153.332 0.373999V2.894H149.894V0.373999H153.332ZM167.346 9.014V8.96C167.346 7.88 166.842 6.422 164.646 6.422H164.466C162.36 6.422 161.694 7.808 161.694 8.96V9.014C161.694 10.112 162.36 11.552 164.466 11.552H164.646C166.842 11.552 167.346 10.04 167.346 9.014ZM158.202 17.438V4.01H161.676V5.288C162.108 4.82 163.422 3.812 165.69 3.812H165.924C169.74 3.812 170.982 6.422 170.982 8.798V9.104C170.982 11.282 169.704 14.198 165.906 14.198H165.654C163.368 14.198 162.144 13.154 161.712 12.722V17.438H158.202ZM173.424 14V4.01H176.934V6.872H179.67C183.09 6.872 184.422 8.384 184.422 10.292V10.508C184.422 12.596 183.09 14 179.67 14H173.424ZM176.934 11.624H179.238C179.958 11.624 180.822 11.408 180.822 10.436V10.382C180.822 9.482 179.958 9.248 179.238 9.248H176.934V11.624ZM189.21 4.01V14H185.7V4.01H189.21Z" fill="#82F7FF"/>
</svg>
