<svg width="469" height="69" viewBox="0 0 469 69" fill="none" xmlns="http://www.w3.org/2000/svg">
<path d="M12.877 19.275H11.727C3.22695 19.275 0.976953 13.825 0.976953 10.025V9.275C0.976953 5.4 3.22695 0.124999 11.727 0.124999H12.877C20.677 0.124999 23.277 3.95 23.277 7.475V7.525H17.977C17.902 7 17.202 4.375 12.302 4.375C7.75195 4.375 6.32695 6.925 6.32695 9.425V9.775C6.32695 12.075 7.80195 15 12.327 15C17.277 15 17.902 12.325 17.977 11.725H23.277V11.8C23.277 15.2 20.777 19.275 12.877 19.275ZM35.3979 19.375H34.6229C27.1479 19.375 25.9979 14.825 25.9979 12.3V11.95C25.9979 9.45 27.1479 4.75 34.5979 4.75H35.4229C43.1229 4.75 44.0229 9.475 44.0229 11.925V12.325C44.0229 14.825 43.1229 19.375 35.3979 19.375ZM34.8729 15.725H35.1479C38.2229 15.725 38.9979 13.525 38.9979 12C38.9979 10.425 38.2229 8.325 35.1479 8.325H34.8729C31.6729 8.325 31.0229 10.425 31.0229 12C31.0229 13.525 31.6729 15.725 34.8729 15.725ZM51.2295 19V8.825H45.8545V5.125H61.4795V8.825H56.1045V19H51.2295ZM76.8746 12.075V12C76.8746 10.5 76.1746 8.475 73.1246 8.475H72.8746C69.9496 8.475 69.0246 10.4 69.0246 12V12.075C69.0246 13.6 69.9496 15.6 72.8746 15.6H73.1246C76.1746 15.6 76.8746 13.5 76.8746 12.075ZM64.1746 23.775V5.125H68.9996V6.9C69.5996 6.25 71.4246 4.85 74.5746 4.85H74.8996C80.1996 4.85 81.9246 8.475 81.9246 11.775V12.2C81.9246 15.225 80.1496 19.275 74.8746 19.275H74.5246C71.3496 19.275 69.6496 17.825 69.0496 17.225V23.775H64.1746ZM86.1219 23.775V20.3H89.1719C89.6469 20.3 89.8969 20.1 89.8969 19.725V19.7C89.8969 19.4 89.8219 19.125 89.4469 18.35L83.4969 5.125H88.8469L92.6969 15.075L96.5219 5.125H101.422L95.0719 20.4C94.0969 22.675 92.8969 23.775 90.5969 23.775H86.1219ZM102.257 21.95V15.3H103.932C104.882 13.4 105.032 9.275 105.157 5.125H119.832V15.3H122.332V21.95H117.707V19H106.882V21.95H102.257ZM108.532 15.3H114.957V8.825H109.532C109.457 10.625 109.207 13.375 108.532 15.3ZM130.108 19H125.233V5.125H130.108V10.175H136.908V5.125H141.783V19H136.908V13.875H130.108V19ZM157.538 10.6L150.838 19H145.838V5.125H150.713V13.525L157.413 5.125H162.413V19H157.538V10.6ZM176.768 5.125H181.643V19H176.768V14.225C175.693 14.35 174.443 14.475 173.143 14.475C167.643 14.475 165.568 12.925 165.568 8.525V5.125H170.443V7.625C170.443 10.225 171.318 10.675 173.893 10.675C174.868 10.675 175.993 10.6 176.768 10.5V5.125ZM193.757 8C191.232 8 190.282 9.025 190.032 10.475H197.382C197.382 9.45 196.882 8 193.757 8ZM197.482 14.675H202.557C202.557 15.825 201.657 19.325 194.482 19.325H193.557C186.707 19.325 185.007 15.575 185.007 12.25V11.9C185.007 8.775 186.557 4.825 193.132 4.825H194.232C201.332 4.825 202.607 8.775 202.607 12.65V13.1H189.982C190.182 14.7 191.207 16 194.182 16C197.007 16 197.357 14.9 197.482 14.675ZM217.546 13.55H222.646C222.646 15.65 221.396 19.375 214.721 19.375H213.496C206.571 19.375 205.271 14.875 205.271 12.25V11.9C205.271 9.275 206.496 4.75 213.471 4.75H214.621C221.321 4.75 222.646 8.4 222.646 10.4V10.425H217.546C217.471 10.025 216.996 8.3 214.121 8.3H213.871C210.996 8.3 210.321 10.275 210.321 11.95V11.975C210.321 13.7 211.146 15.75 213.971 15.75H214.221C217.121 15.75 217.546 13.875 217.546 13.55ZM229.94 19V8.825H224.565V5.125H240.19V8.825H234.815V19H229.94ZM254.286 19H242.836V5.125H253.786C256.961 5.125 258.961 6.25 258.961 8.45V8.575C258.961 10.3 257.861 11.325 256.186 11.6C257.886 11.8 259.411 13 259.411 15V15.1C259.411 17.625 257.761 19 254.286 19ZM247.711 10.65H252.186C253.361 10.65 253.961 10.2 253.961 9.325V9.2C253.961 8.4 253.411 7.925 252.186 7.925H247.711V10.65ZM247.711 16.2H252.386C253.686 16.2 254.411 15.775 254.411 14.8V14.6C254.411 13.725 253.811 13.175 252.386 13.175H247.711V16.2ZM271.506 19.375H270.731C263.256 19.375 262.106 14.825 262.106 12.3V11.95C262.106 9.45 263.256 4.75 270.706 4.75H271.531C279.231 4.75 280.131 9.475 280.131 11.925V12.325C280.131 14.825 279.231 19.375 271.506 19.375ZM270.981 15.725H271.256C274.331 15.725 275.106 13.525 275.106 12C275.106 10.425 274.331 8.325 271.256 8.325H270.981C267.781 8.325 267.131 10.425 267.131 12C267.131 13.525 267.781 15.725 270.981 15.725ZM302.412 10.6L295.712 19H290.712V5.125H295.587V13.525L302.287 5.125H307.287V19H302.412V10.6ZM317.418 21.95V15.3H319.093C320.043 13.4 320.193 9.275 320.318 5.125H334.993V15.3H337.493V21.95H332.868V19H322.043V21.95H317.418ZM323.693 15.3H330.118V8.825H324.693C324.618 10.625 324.368 13.375 323.693 15.3ZM348.85 19.375H348.075C340.6 19.375 339.45 14.825 339.45 12.3V11.95C339.45 9.45 340.6 4.75 348.05 4.75H348.875C356.575 4.75 357.475 9.475 357.475 11.925V12.325C357.475 14.825 356.575 19.375 348.85 19.375ZM348.325 15.725H348.6C351.675 15.725 352.45 13.525 352.45 12C352.45 10.425 351.675 8.325 348.6 8.325H348.325C345.125 8.325 344.475 10.425 344.475 12C344.475 13.525 345.125 15.725 348.325 15.725ZM372.279 19H360.829V5.125H371.779C374.954 5.125 376.954 6.25 376.954 8.45V8.575C376.954 10.3 375.854 11.325 374.179 11.6C375.879 11.8 377.404 13 377.404 15V15.1C377.404 17.625 375.754 19 372.279 19ZM365.704 10.65H370.179C371.354 10.65 371.954 10.2 371.954 9.325V9.2C371.954 8.4 371.404 7.925 370.179 7.925H365.704V10.65ZM365.704 16.2H370.379C371.679 16.2 372.404 15.775 372.404 14.8V14.6C372.404 13.725 371.804 13.175 370.379 13.175H365.704V16.2ZM388.874 8C386.349 8 385.399 9.025 385.149 10.475H392.499C392.499 9.45 391.999 8 388.874 8ZM392.599 14.675H397.674C397.674 15.825 396.774 19.325 389.599 19.325H388.674C381.824 19.325 380.124 15.575 380.124 12.25V11.9C380.124 8.775 381.674 4.825 388.249 4.825H389.349C396.449 4.825 397.724 8.775 397.724 12.65V13.1H385.099C385.299 14.7 386.324 16 389.299 16C392.124 16 392.474 14.9 392.599 14.675ZM413.813 12.075V12C413.813 10.5 413.113 8.475 410.063 8.475H409.813C406.888 8.475 405.963 10.4 405.963 12V12.075C405.963 13.6 406.888 15.6 409.813 15.6H410.063C413.113 15.6 413.813 13.5 413.813 12.075ZM401.113 23.775V5.125H405.938V6.9C406.538 6.25 408.363 4.85 411.513 4.85H411.838C417.138 4.85 418.863 8.475 418.863 11.775V12.2C418.863 15.225 417.088 19.275 411.813 19.275H411.463C408.288 19.275 406.588 17.825 405.988 17.225V23.775H401.113ZM433.954 10.6L427.254 19H422.254V5.125H427.129V13.525L433.829 5.125H438.829V19H433.954V10.6ZM450.959 8C448.434 8 447.484 9.025 447.234 10.475H454.584C454.584 9.45 454.084 8 450.959 8ZM454.684 14.675H459.759C459.759 15.825 458.859 19.325 451.684 19.325H450.759C443.909 19.325 442.209 15.575 442.209 12.25V11.9C442.209 8.775 443.759 4.825 450.334 4.825H451.434C458.534 4.825 459.809 8.775 459.809 12.65V13.1H447.184C447.384 14.7 448.409 16 451.384 16C454.209 16 454.559 14.9 454.684 14.675ZM468.723 14.15V19H462.898V14.15H468.723ZM468.723 5.725V10.575H462.898V5.725H468.723ZM100.585 64L95.1849 57.575V64H90.3099V50.125H95.1849V55.675L100.135 50.125H105.76L99.9599 56.35L106.385 64H100.585ZM112.375 64V53.825H107V50.125H122.625V53.825H117.25V64H112.375ZM133.97 64.375H133.195C125.72 64.375 124.57 59.825 124.57 57.3V56.95C124.57 54.45 125.72 49.75 133.17 49.75H133.995C141.695 49.75 142.595 54.475 142.595 56.925V57.325C142.595 59.825 141.695 64.375 133.97 64.375ZM133.445 60.725H133.72C136.795 60.725 137.57 58.525 137.57 57C137.57 55.425 136.795 53.325 133.72 53.325H133.445C130.245 53.325 129.595 55.425 129.595 57C129.595 58.525 130.245 60.725 133.445 60.725ZM165.925 57.075V57C165.925 55.5 165.225 53.475 162.175 53.475H161.925C159 53.475 158.075 55.4 158.075 57V57.075C158.075 58.6 159 60.6 161.925 60.6H162.175C165.225 60.6 165.925 58.5 165.925 57.075ZM153.225 68.775V50.125H158.05V51.9C158.65 51.25 160.475 49.85 163.625 49.85H163.95C169.25 49.85 170.975 53.475 170.975 56.775V57.2C170.975 60.225 169.2 64.275 163.925 64.275H163.575C160.4 64.275 158.7 62.825 158.1 62.225V68.775H153.225ZM186.041 59.35H182.766L178.716 64H173.216L177.741 58.825C175.341 58.35 173.966 56.975 173.966 54.875V54.575C173.966 52.05 176.016 50.125 179.491 50.125H190.916V64H186.041V59.35ZM186.041 53.325H180.816C179.741 53.325 178.841 53.575 178.841 54.675V54.775C178.841 55.85 179.766 56.175 180.841 56.175H186.041V53.325ZM193.822 66.95V60.3H195.497C196.447 58.4 196.597 54.275 196.722 50.125H211.397V60.3H213.897V66.95H209.272V64H198.447V66.95H193.822ZM200.097 60.3H206.522V53.825H201.097C201.022 55.625 200.772 58.375 200.097 60.3ZM225.254 64.375H224.479C217.004 64.375 215.854 59.825 215.854 57.3V56.95C215.854 54.45 217.004 49.75 224.454 49.75H225.279C232.979 49.75 233.879 54.475 233.879 56.925V57.325C233.879 59.825 232.979 64.375 225.254 64.375ZM224.729 60.725H225.004C228.079 60.725 228.854 58.525 228.854 57C228.854 55.425 228.079 53.325 225.004 53.325H224.729C221.529 53.325 220.879 55.425 220.879 57C220.879 58.525 221.529 60.725 224.729 60.725ZM241.733 54.65V64H237.233V50.125H244.108L248.233 58.975L252.358 50.125H258.983V64H254.108V54.65L249.783 64H246.058L241.733 54.65ZM281.694 58.55H286.794C286.794 60.65 285.544 64.375 278.869 64.375H277.644C270.719 64.375 269.419 59.875 269.419 57.25V56.9C269.419 54.275 270.644 49.75 277.619 49.75H278.769C285.469 49.75 286.794 53.4 286.794 55.4V55.425H281.694C281.619 55.025 281.144 53.3 278.269 53.3H278.019C275.144 53.3 274.469 55.275 274.469 56.95V56.975C274.469 58.7 275.294 60.75 278.119 60.75H278.369C281.269 60.75 281.694 58.875 281.694 58.55ZM302.215 64H297.34V50.125H302.215V55.175H309.015V50.125H313.89V64H309.015V58.875H302.215V64ZM324.495 61.225C327.345 61.225 328.32 59.425 328.32 58.375V57.3C327.895 57.475 326.67 57.725 325.27 57.95C322.92 58.35 322.17 58.675 322.17 59.65V59.7C322.17 60.575 322.795 61.225 324.495 61.225ZM328.47 62.075C327.87 62.8 326.37 64.275 323.12 64.275H322.72C318.845 64.275 317.245 62.175 317.245 59.875V59.775C317.245 57.375 318.77 55.9 323.47 55.5L327.27 55.175C328.045 55.1 328.32 54.85 328.32 54.275C328.32 53.625 328.12 52.925 325.42 52.925C322.87 52.925 322.62 53.925 322.62 54.45H317.62V54.4C317.62 53.025 318.17 49.8 324.995 49.8H325.77C332.645 49.8 333.07 52.625 333.07 54.475V59.05C333.07 59.925 333.245 60.275 334.22 60.275H334.745V64H330.795C329.345 64 328.67 62.975 328.47 62.075ZM342.025 54.65V64H337.525V50.125H344.4L348.525 58.975L352.65 50.125H359.275V64H354.4V54.65L350.075 64H346.35L342.025 54.65ZM374.86 55.6L368.16 64H363.16V50.125H368.035V58.525L374.735 50.125H379.735V64H374.86V55.6Z" fill="#EBEBEB"/>
</svg>
