<svg width="251" height="26" viewBox="0 0 251 26" fill="none" xmlns="http://www.w3.org/2000/svg">
<path d="M14.8483 0.807999H16.2563C27.3923 0.807999 30.5603 7.336 30.5603 12.552V13.512C30.5603 18.632 27.3923 25.384 16.2563 25.384H14.8483C3.71225 25.384 0.54425 18.632 0.54425 13.512V12.552C0.54425 7.368 3.71225 0.807999 14.8483 0.807999ZM23.7123 13.256V12.808C23.7123 9.864 22.2723 6.248 15.5522 6.248C8.89625 6.248 7.39225 9.864 7.39225 12.808V13.256C7.39225 16.136 8.99225 19.912 15.5522 19.912C22.2403 19.912 23.7123 16.136 23.7123 13.256ZM57.4955 25L50.5835 16.776V25H44.3435V7.24H50.5835V14.344L56.9195 7.24H64.1195L56.6955 15.208L64.9195 25H57.4955ZM77.8218 25.48H76.8298C67.2618 25.48 65.7898 19.656 65.7898 16.424V15.976C65.7898 12.776 67.2618 6.76 76.7978 6.76H77.8538C87.7098 6.76 88.8618 12.808 88.8618 15.944V16.456C88.8618 19.656 87.7098 25.48 77.8218 25.48ZM77.1498 20.808H77.5018C81.4378 20.808 82.4298 17.992 82.4298 16.04C82.4298 14.024 81.4378 11.336 77.5018 11.336H77.1498C73.0538 11.336 72.2218 14.024 72.2218 16.04C72.2218 17.992 73.0538 20.808 77.1498 20.808ZM98.9145 13.032V25H93.1545V7.24H101.955L107.235 18.568L112.515 7.24H120.995V25H114.755V13.032L109.219 25H104.451L98.9145 13.032ZM125.967 25V7.24H146.511V25H140.271V11.976H132.207V25H125.967ZM160.07 21.448C163.718 21.448 164.966 19.144 164.966 17.8V16.424C164.422 16.648 162.854 16.968 161.062 17.256C158.054 17.768 157.094 18.184 157.094 19.432V19.496C157.094 20.616 157.894 21.448 160.07 21.448ZM165.158 22.536C164.39 23.464 162.47 25.352 158.31 25.352H157.798C152.838 25.352 150.79 22.664 150.79 19.72V19.592C150.79 16.52 152.742 14.632 158.758 14.12L163.622 13.704C164.614 13.608 164.966 13.288 164.966 12.552C164.966 11.72 164.71 10.824 161.254 10.824C157.99 10.824 157.67 12.104 157.67 12.776H151.27V12.712C151.27 10.952 151.974 6.824 160.71 6.824H161.702C170.502 6.824 171.046 10.44 171.046 12.808V18.664C171.046 19.784 171.27 20.232 172.518 20.232H173.19V25H168.134C166.278 25 165.414 23.688 165.158 22.536ZM182.988 25H176.748V7.24H182.988V13.704H191.692V7.24H197.932V25H191.692V18.44H182.988V25ZM218.099 14.248L209.523 25H203.123V7.24H209.363V17.992L217.939 7.24H224.339V25H218.099V14.248ZM244.506 14.248L235.93 25H229.53V7.24H235.77V17.992L244.346 7.24H250.746V25H244.506V14.248Z" fill="#EBEBEB"/>
</svg>
