<svg width="328" height="53" viewBox="0 0 328 53" fill="none" xmlns="http://www.w3.org/2000/svg">
<path d="M38.8129 14.1167L32.3689 7.8167V14.1167H28.6609V0.724699H32.3689V6.2327L38.6329 0.724699H43.3489L36.2929 6.8627L43.6549 14.1167H38.8129ZM50.5296 14.3867H49.9716C44.5896 14.3867 43.7616 11.1107 43.7616 9.2927V9.0407C43.7616 7.2407 44.5896 3.8567 49.9536 3.8567H50.5476C56.0916 3.8567 56.7396 7.2587 56.7396 9.0227V9.3107C56.7396 11.1107 56.0916 14.3867 50.5296 14.3867ZM50.1516 11.7587H50.3496C52.5636 11.7587 53.1216 10.1747 53.1216 9.0767C53.1216 7.9427 52.5636 6.4307 50.3496 6.4307H50.1516C47.8476 6.4307 47.3796 7.9427 47.3796 9.0767C47.3796 10.1747 47.8476 11.7587 50.1516 11.7587ZM62.3943 7.3847V14.1167H59.1543V4.1267H64.1043L67.0743 10.4987L70.0443 4.1267H74.8143V14.1167H71.3043V7.3847L68.1903 14.1167H65.5083L62.3943 7.3847ZM77.6113 14.1167V4.1267H89.1673V14.1167H85.6573V6.7907H81.1213V14.1167H77.6113ZM96.7941 12.1187C98.8461 12.1187 99.5481 10.8227 99.5481 10.0667V9.2927C99.2421 9.4187 98.3601 9.5987 97.3521 9.7607C95.6601 10.0487 95.1201 10.2827 95.1201 10.9847V11.0207C95.1201 11.6507 95.5701 12.1187 96.7941 12.1187ZM99.6561 12.7307C99.2241 13.2527 98.1441 14.3147 95.8041 14.3147H95.5161C92.7261 14.3147 91.5741 12.8027 91.5741 11.1467V11.0747C91.5741 9.3467 92.6721 8.2847 96.0561 7.9967L98.7921 7.7627C99.3501 7.7087 99.5481 7.5287 99.5481 7.1147C99.5481 6.6467 99.4041 6.1427 97.4601 6.1427C95.6241 6.1427 95.4441 6.8627 95.4441 7.2407H91.8441V7.2047C91.8441 6.2147 92.2401 3.8927 97.1541 3.8927H97.7121C102.662 3.8927 102.968 5.9267 102.968 7.2587V10.5527C102.968 11.1827 103.094 11.4347 103.796 11.4347H104.174V14.1167H101.33C100.286 14.1167 99.8001 13.3787 99.6561 12.7307ZM109.686 14.1167H106.176V4.1267H109.686V7.7627H114.582V4.1267H118.092V14.1167H114.582V10.4267H109.686V14.1167ZM129.436 8.0687L124.612 14.1167H121.012V4.1267H124.522V10.1747L129.346 4.1267H132.946V14.1167H129.436V8.0687ZM144.289 8.0687L139.465 14.1167H135.865V4.1267H139.375V10.1747L144.199 4.1267H147.799V14.1167H144.289V8.0687ZM164.274 10.1927H167.946C167.946 11.7047 167.046 14.3867 162.24 14.3867H161.358C156.372 14.3867 155.436 11.1467 155.436 9.2567V9.0047C155.436 7.1147 156.318 3.8567 161.34 3.8567H162.168C166.992 3.8567 167.946 6.4847 167.946 7.9247V7.9427H164.274C164.22 7.6547 163.878 6.4127 161.808 6.4127H161.628C159.558 6.4127 159.072 7.8347 159.072 9.0407V9.0587C159.072 10.3007 159.666 11.7767 161.7 11.7767H161.88C163.968 11.7767 164.274 10.4267 164.274 10.1927ZM182.973 14.1167L179.085 9.4907V14.1167H175.575V4.1267H179.085V8.1227L182.649 4.1267H186.699L182.523 8.6087L187.149 14.1167H182.973ZM194.407 14.3867H193.849C188.467 14.3867 187.639 11.1107 187.639 9.2927V9.0407C187.639 7.2407 188.467 3.8567 193.831 3.8567H194.425C199.969 3.8567 200.617 7.2587 200.617 9.0227V9.3107C200.617 11.1107 199.969 14.3867 194.407 14.3867ZM194.029 11.7587H194.227C196.441 11.7587 196.999 10.1747 196.999 9.0767C196.999 7.9427 196.441 6.4307 194.227 6.4307H194.029C191.725 6.4307 191.257 7.9427 191.257 9.0767C191.257 10.1747 191.725 11.7587 194.029 11.7587ZM205.805 14.1167V6.7907H201.935V4.1267H213.185V6.7907H209.315V14.1167H205.805ZM221.354 14.3867H220.796C215.414 14.3867 214.586 11.1107 214.586 9.2927V9.0407C214.586 7.2407 215.414 3.8567 220.778 3.8567H221.372C226.916 3.8567 227.564 7.2587 227.564 9.0227V9.3107C227.564 11.1107 226.916 14.3867 221.354 14.3867ZM220.976 11.7587H221.174C223.388 11.7587 223.946 10.1747 223.946 9.0767C223.946 7.9427 223.388 6.4307 221.174 6.4307H220.976C218.672 6.4307 218.204 7.9427 218.204 9.0767C218.204 10.1747 218.672 11.7587 220.976 11.7587ZM239.159 9.1307V9.0767C239.159 7.9967 238.655 6.5387 236.459 6.5387H236.279C234.173 6.5387 233.507 7.9247 233.507 9.0767V9.1307C233.507 10.2287 234.173 11.6687 236.279 11.6687H236.459C238.655 11.6687 239.159 10.1567 239.159 9.1307ZM230.015 17.5547V4.1267H233.489V5.4047C233.921 4.9367 235.235 3.9287 237.503 3.9287H237.737C241.553 3.9287 242.795 6.5387 242.795 8.9147V9.2207C242.795 11.3987 241.517 14.3147 237.719 14.3147H237.467C235.181 14.3147 233.957 13.2707 233.525 12.8387V17.5547H230.015ZM245.236 14.1167V4.1267H248.746V6.9887H251.482C254.902 6.9887 256.234 8.5007 256.234 10.4087V10.6247C256.234 12.7127 254.902 14.1167 251.482 14.1167H245.236ZM248.746 11.7407H251.05C251.77 11.7407 252.634 11.5247 252.634 10.5527V10.4987C252.634 9.5987 251.77 9.3647 251.05 9.3647H248.746V11.7407ZM261.022 4.1267V14.1167H257.512V4.1267H261.022ZM267.179 7.3847V14.1167H263.939V4.1267H268.889L271.859 10.4987L274.829 4.1267H279.599V14.1167H276.089V7.3847L272.975 14.1167H270.293L267.179 7.3847ZM290.82 8.0687L285.996 14.1167H282.396V4.1267H285.906V10.1747L290.73 4.1267H294.33V14.1167H290.82V8.0687ZM3.79761 42.3847V49.1167H0.557609V39.1267H5.50761L8.47761 45.4987L11.4476 39.1267H16.2176V49.1167H12.7076V42.3847L9.59361 49.1167H6.91161L3.79761 42.3847ZM19.0146 49.1167V39.1267H22.5246V41.9887H25.2606C28.6806 41.9887 30.0126 43.5007 30.0126 45.4087V45.6247C30.0126 47.7127 28.6806 49.1167 25.2606 49.1167H19.0146ZM22.5246 46.7407H24.8286C25.5486 46.7407 26.4126 46.5247 26.4126 45.5527V45.4987C26.4126 44.5987 25.5486 44.3647 24.8286 44.3647H22.5246V46.7407ZM34.8006 39.1267V49.1167H31.2906V39.1267H34.8006ZM43.6769 52.5547V50.0527H45.8729C46.2149 50.0527 46.3949 49.9087 46.3949 49.6387V49.6207C46.3949 49.4047 46.3409 49.2067 46.0709 48.6487L41.7869 39.1267H45.6389L48.4109 46.2907L51.1649 39.1267H54.6929L50.1209 50.1247C49.4189 51.7627 48.5549 52.5547 46.8989 52.5547H43.6769ZM64.6498 45.1927H68.3218C68.3218 46.7047 67.4218 49.3867 62.6158 49.3867H61.7338C56.7478 49.3867 55.8118 46.1467 55.8118 44.2567V44.0047C55.8118 42.1147 56.6938 38.8567 61.7158 38.8567H62.5438C67.3678 38.8567 68.3218 41.4847 68.3218 42.9247V42.9427H64.6498C64.5958 42.6547 64.2538 41.4127 62.1838 41.4127H62.0038C59.9338 41.4127 59.4478 42.8347 59.4478 44.0407V44.0587C59.4478 45.3007 60.0418 46.7767 62.0758 46.7767H62.2558C64.3438 46.7767 64.6498 45.4267 64.6498 45.1927ZM70.7119 49.1167V39.1267H82.2679V49.1167H78.7579V41.7907H74.2219V49.1167H70.7119ZM90.9927 41.1967C89.1747 41.1967 88.4907 41.9347 88.3107 42.9787H93.6027C93.6027 42.2407 93.2427 41.1967 90.9927 41.1967ZM93.6747 46.0027H97.3287C97.3287 46.8307 96.6807 49.3507 91.5147 49.3507H90.8487C85.9167 49.3507 84.6927 46.6507 84.6927 44.2567V44.0047C84.6927 41.7547 85.8087 38.9107 90.5427 38.9107H91.3347C96.4467 38.9107 97.3647 41.7547 97.3647 44.5447V44.8687H88.2747C88.4187 46.0207 89.1567 46.9567 91.2987 46.9567C93.3327 46.9567 93.5847 46.1647 93.6747 46.0027ZM99.7685 49.1167V39.1267H103.279V46.4527H106.375V39.1267H109.885V46.4527H112.981V39.1267H116.491V49.1167H99.7685ZM122.913 49.1167H119.403V39.1267H122.913V42.7627H127.809V39.1267H131.319V49.1167H127.809V45.4267H122.913V49.1167ZM140.503 49.3867H139.945C134.563 49.3867 133.735 46.1107 133.735 44.2927V44.0407C133.735 42.2407 134.563 38.8567 139.927 38.8567H140.521C146.065 38.8567 146.713 42.2587 146.713 44.0227V44.3107C146.713 46.1107 146.065 49.3867 140.503 49.3867ZM140.125 46.7587H140.323C142.537 46.7587 143.095 45.1747 143.095 44.0767C143.095 42.9427 142.537 41.4307 140.323 41.4307H140.125C137.821 41.4307 137.353 42.9427 137.353 44.0767C137.353 45.1747 137.821 46.7587 140.125 46.7587ZM162.683 45.1927H166.355C166.355 46.7047 165.455 49.3867 160.649 49.3867H159.767C154.781 49.3867 153.845 46.1467 153.845 44.2567V44.0047C153.845 42.1147 154.727 38.8567 159.749 38.8567H160.577C165.401 38.8567 166.355 41.4847 166.355 42.9247V42.9427H162.683C162.629 42.6547 162.287 41.4127 160.217 41.4127H160.037C157.967 41.4127 157.481 42.8347 157.481 44.0407V44.0587C157.481 45.3007 158.075 46.7767 160.109 46.7767H160.289C162.377 46.7767 162.683 45.4267 162.683 45.1927ZM175.009 49.3867H174.451C169.069 49.3867 168.241 46.1107 168.241 44.2927V44.0407C168.241 42.2407 169.069 38.8567 174.433 38.8567H175.027C180.571 38.8567 181.219 42.2587 181.219 44.0227V44.3107C181.219 46.1107 180.571 49.3867 175.009 49.3867ZM174.631 46.7587H174.829C177.043 46.7587 177.601 45.1747 177.601 44.0767C177.601 42.9427 177.043 41.4307 174.829 41.4307H174.631C172.327 41.4307 171.859 42.9427 171.859 44.0767C171.859 45.1747 172.327 46.7587 174.631 46.7587ZM186.408 49.1167V41.7907H182.538V39.1267H193.788V41.7907H189.918V49.1167H186.408ZM204.872 44.1307V44.0767C204.872 42.9967 204.368 41.5387 202.172 41.5387H201.992C199.886 41.5387 199.22 42.9247 199.22 44.0767V44.1307C199.22 45.2287 199.886 46.6687 201.992 46.6687H202.172C204.368 46.6687 204.872 45.1567 204.872 44.1307ZM195.728 52.5547V39.1267H199.202V40.4047C199.634 39.9367 200.948 38.9287 203.216 38.9287H203.45C207.266 38.9287 208.508 41.5387 208.508 43.9147V44.2207C208.508 46.3987 207.23 49.3147 203.432 49.3147H203.18C200.894 49.3147 199.67 48.2707 199.238 47.8387V52.5547H195.728ZM211.53 52.5547V50.0527H213.726C214.068 50.0527 214.248 49.9087 214.248 49.6387V49.6207C214.248 49.4047 214.194 49.2067 213.924 48.6487L209.64 39.1267H213.492L216.264 46.2907L219.018 39.1267H222.546L217.974 50.1247C217.272 51.7627 216.408 52.5547 214.752 52.5547H211.53ZM223.148 51.2407V46.4527H224.354C225.038 45.0847 225.146 42.1147 225.236 39.1267H235.802V46.4527H237.602V51.2407H234.272V49.1167H226.478V51.2407H223.148ZM227.666 46.4527H232.292V41.7907H228.386C228.332 43.0867 228.152 45.0667 227.666 46.4527ZM243.2 49.1167H239.69V39.1267H243.2V42.7627H248.096V39.1267H251.606V49.1167H248.096V45.4267H243.2V49.1167ZM262.95 43.0687L258.126 49.1167H254.526V39.1267H258.036V45.1747L262.86 39.1267H266.46V49.1167H262.95V43.0687ZM276.796 39.1267H280.306V49.1167H276.796V45.6787C276.022 45.7687 275.122 45.8587 274.186 45.8587C270.226 45.8587 268.732 44.7427 268.732 41.5747V39.1267H272.242V40.9267C272.242 42.7987 272.872 43.1227 274.726 43.1227C275.428 43.1227 276.238 43.0687 276.796 42.9967V39.1267ZM287.93 47.1187C289.982 47.1187 290.684 45.8227 290.684 45.0667V44.2927C290.378 44.4187 289.496 44.5987 288.488 44.7607C286.796 45.0487 286.256 45.2827 286.256 45.9847V46.0207C286.256 46.6507 286.706 47.1187 287.93 47.1187ZM290.792 47.7307C290.36 48.2527 289.28 49.3147 286.94 49.3147H286.652C283.862 49.3147 282.71 47.8027 282.71 46.1467V46.0747C282.71 44.3467 283.808 43.2847 287.192 42.9967L289.928 42.7627C290.486 42.7087 290.684 42.5287 290.684 42.1147C290.684 41.6467 290.54 41.1427 288.596 41.1427C286.76 41.1427 286.58 41.8627 286.58 42.2407H282.98V42.2047C282.98 41.2147 283.376 38.8927 288.29 38.8927H288.848C293.798 38.8927 294.104 40.9267 294.104 42.2587V45.5527C294.104 46.1827 294.23 46.4347 294.932 46.4347H295.31V49.1167H292.466C291.422 49.1167 290.936 48.3787 290.792 47.7307ZM303.126 41.1967C301.308 41.1967 300.624 41.9347 300.444 42.9787H305.736C305.736 42.2407 305.376 41.1967 303.126 41.1967ZM305.808 46.0027H309.462C309.462 46.8307 308.814 49.3507 303.648 49.3507H302.982C298.05 49.3507 296.826 46.6507 296.826 44.2567V44.0047C296.826 41.7547 297.942 38.9107 302.676 38.9107H303.468C308.58 38.9107 309.498 41.7547 309.498 44.5447V44.8687H300.408C300.552 46.0207 301.29 46.9567 303.432 46.9567C305.466 46.9567 305.718 46.1647 305.808 46.0027ZM315.141 42.3847V49.1167H311.901V39.1267H316.851L319.821 45.4987L322.791 39.1267H327.561V49.1167H324.051V42.3847L320.937 49.1167H318.255L315.141 42.3847Z" fill="#717171"/>
</svg>
