<svg width="485" height="17" viewBox="0 0 485 17" fill="none" xmlns="http://www.w3.org/2000/svg">
<path opacity="0.1" d="M13.973 16.5708V10.2918H5.258V16.5708H0.932V0.9468H5.258V6.7428H13.973V0.9468H18.299V16.5708H13.973ZM33.0566 10.4598L30.2216 4.0968L27.4706 10.4598H33.0566ZM35.7866 16.5708L34.5056 13.6728H26.0636L24.8036 16.5708H20.4566L27.3866 0.9468H33.1826L40.4276 16.5708H35.7866ZM42.5834 16.5708V0.9468H46.9094V13.1268H52.0334V0.9468H56.3594V13.1268H61.4834V0.9468H65.8094V16.5708H42.5834ZM83.1352 16.5708V6.0708L74.0002 16.5708H69.6742V0.9468H74.0002V11.4468L83.1352 0.9468H87.4612V16.5708H83.1352ZM109.245 16.5708L101.727 9.2208V16.5708H97.4008V0.9468H101.727V7.3728L109.035 0.9468H114.537L106.305 8.1078L114.894 16.5708H109.245ZM129.129 16.5708V4.3908H122.409C122.409 8.6538 122.22 11.9088 121.653 13.6098C121.149 15.1008 120.246 16.5708 117.138 16.5708H115.584V12.8958H115.731C117.012 12.8958 117.537 12.3078 117.789 11.6568C118.209 10.5648 118.314 9.0738 118.314 0.9468H133.455V16.5708H129.129ZM150.77 16.5708V6.0708L141.635 16.5708H137.309V0.9468H141.635V11.4468L150.77 0.9468H155.096V16.5708H150.77ZM158.965 0.9468H173.266V4.3488H163.228V6.8898H172.951V10.4178H163.228V13.1268H173.392V16.5708H158.965V0.9468ZM189.889 16.5708V10.2918H181.174V16.5708H176.848V0.9468H181.174V6.7428H189.889V0.9468H194.215V16.5708H189.889ZM203.156 16.5708V4.5168H197.108V0.9468H213.509V4.5168H207.461V16.5708H203.156ZM220.734 0.9468V5.9868H227.097C231.948 5.9868 233.46 8.1708 233.46 11.1318V11.3628C233.46 14.3238 231.885 16.5708 227.097 16.5708H216.408V0.9468H220.734ZM220.734 13.1268H226.761C228.252 13.1268 228.966 12.3918 228.966 11.3208V11.1738C228.966 10.1028 228.252 9.4308 226.761 9.4308H220.734V13.1268ZM239.529 0.9468V16.5708H235.203V0.9468H239.529ZM262.927 16.5708V6.0708L253.792 16.5708H249.466V0.9468H253.792V11.4468L262.927 0.9468H267.253V16.5708H262.927ZM288.174 11.8668V12.0768C288.174 15.4158 285.066 16.8438 279.606 16.8438H279.102C274.65 16.8438 270.366 15.5208 270.366 11.3208V11.0688H274.986C274.986 13.0008 276.708 13.6728 279.837 13.6728C282.441 13.6728 283.68 12.9798 283.68 11.7198C283.68 10.5438 282.861 10.0398 280.824 10.0398H276.309V6.9528H280.593C281.853 6.9528 283.197 6.7638 283.197 5.5878C283.197 4.2648 282.063 3.8448 279.312 3.8448C277.065 3.8448 275.175 4.2648 275.112 6.0288H270.492V5.7138C270.492 1.9968 274.545 0.7578 278.892 0.7578H279.564C284.835 0.7578 287.691 2.0808 287.691 4.7058V4.8528C287.691 6.8478 286.368 7.8138 284.688 8.2548C286.368 8.5908 288.174 9.6828 288.174 11.8668ZM297.167 16.5708V0.9468H308.57C313.043 0.9468 314.156 2.8998 314.156 4.6428V4.8738C314.156 6.8478 312.455 7.7928 311.279 7.9608C313.043 8.2548 314.933 9.3048 314.933 11.8248V12.0558C314.933 14.1768 313.652 16.5708 308.633 16.5708H297.167ZM307.94 4.2018H301.493V6.9948H307.94C309.263 6.9948 309.641 6.3648 309.641 5.6298V5.5878C309.641 4.8318 309.221 4.2018 307.94 4.2018ZM308.276 10.0608H301.493V13.1478H308.276C309.788 13.1478 310.229 12.3498 310.229 11.5728V11.4888C310.229 10.7118 309.788 10.0608 308.276 10.0608ZM327.265 16.8018H326.299C319.159 16.8018 317.269 12.2238 317.269 9.0318V8.4018C317.269 5.1468 319.159 0.7158 326.299 0.7158H327.265C333.817 0.7158 336.001 3.9288 336.001 6.8898V6.9318H331.549C331.486 6.4908 330.898 4.2858 326.782 4.2858C322.96 4.2858 321.763 6.4278 321.763 8.5278V8.8218C321.763 10.7538 323.002 13.2108 326.803 13.2108C330.961 13.2108 331.486 10.9638 331.549 10.4598H336.001V10.5228C336.001 13.3788 333.901 16.8018 327.265 16.8018ZM339.106 0.9468H353.407V4.3488H343.369V6.8898H353.092V10.4178H343.369V13.1268H353.533V16.5708H339.106V0.9468ZM356.989 16.5708V0.9468H370.009V4.3908H361.315V16.5708H356.989ZM381.166 0.6948H382.09C389.398 0.6948 391.477 4.9788 391.477 8.4018V9.0318C391.477 12.3918 389.398 16.8228 382.09 16.8228H381.166C373.858 16.8228 371.779 12.3918 371.779 9.0318V8.4018C371.779 4.9998 373.858 0.6948 381.166 0.6948ZM386.983 8.8638V8.5698C386.983 6.6378 386.038 4.2648 381.628 4.2648C377.26 4.2648 376.273 6.6378 376.273 8.5698V8.8638C376.273 10.7538 377.323 13.2318 381.628 13.2318C386.017 13.2318 386.983 10.7538 386.983 8.8638ZM400.711 16.5708V0.9468H406.465L411.442 11.5308L416.566 0.9468H421.963V16.5708H417.742V6.3438L412.996 16.5708H409.615L404.869 6.3438V16.5708H400.711ZM439.294 16.5708V6.0708L430.159 16.5708H425.833V0.9468H430.159V11.4468L439.294 0.9468H443.62V16.5708H439.294ZM458.074 11.5728H451.816V16.5708H447.49V0.9468H458.074C463.009 0.9468 464.542 3.1098 464.542 6.1338V6.3648C464.542 9.3258 462.946 11.5728 458.074 11.5728ZM451.816 4.4328V8.0868H457.759C459.355 8.0868 460.048 7.4148 460.048 6.3018V6.2178C460.048 5.1258 459.355 4.4328 457.759 4.4328H451.816ZM476.887 10.4598L474.052 4.0968L471.301 10.4598H476.887ZM479.617 16.5708L478.336 13.6728H469.894L468.634 16.5708H464.287L471.217 0.9468H477.013L484.258 16.5708H479.617Z" fill="white"/>
</svg>
