<svg width="824" height="102" viewBox="0 0 824 102" fill="none" xmlns="http://www.w3.org/2000/svg">
<path d="M0.600128 25V1.192H17.9761C24.7921 1.192 26.4881 4.168 26.4881 6.824V7.176C26.4881 10.184 23.8961 11.624 22.1041 11.88C24.7921 12.328 27.6721 13.928 27.6721 17.768V18.12C27.6721 21.352 25.7201 25 18.0721 25H0.600128ZM17.0161 6.152H7.19213V10.408H17.0161C19.0321 10.408 19.6081 9.448 19.6081 8.328V8.264C19.6081 7.112 18.9681 6.152 17.0161 6.152ZM17.5281 15.08H7.19213V19.784H17.5281C19.8321 19.784 20.5041 18.568 20.5041 17.384V17.256C20.5041 16.072 19.8321 15.08 17.5281 15.08ZM31.9356 25V7.24H52.4796V25H46.2396V11.976H38.1756V25H31.9356ZM67.9904 10.92C64.7584 10.92 63.5424 12.232 63.2224 14.088H72.6304C72.6304 12.776 71.9904 10.92 67.9904 10.92ZM72.7584 19.464H79.2544C79.2544 20.936 78.1024 25.416 68.9184 25.416H67.7344C58.9664 25.416 56.7904 20.616 56.7904 16.36V15.912C56.7904 11.912 58.7744 6.856 67.1904 6.856H68.5984C77.6864 6.856 79.3184 11.912 79.3184 16.872V17.448H63.1584C63.4144 19.496 64.7264 21.16 68.5344 21.16C72.1504 21.16 72.5984 19.752 72.7584 19.464ZM96.7759 7.24H103.016V25H96.7759V18.888C95.3999 19.048 93.7999 19.208 92.1359 19.208C85.0959 19.208 82.4399 17.224 82.4399 11.592V7.24H88.6799V10.44C88.6799 13.768 89.7999 14.344 93.0959 14.344C94.3439 14.344 95.7839 14.248 96.7759 14.12V7.24ZM116.57 21.448C120.218 21.448 121.466 19.144 121.466 17.8V16.424C120.922 16.648 119.354 16.968 117.562 17.256C114.554 17.768 113.594 18.184 113.594 19.432V19.496C113.594 20.616 114.394 21.448 116.57 21.448ZM121.658 22.536C120.89 23.464 118.97 25.352 114.81 25.352H114.298C109.338 25.352 107.29 22.664 107.29 19.72V19.592C107.29 16.52 109.242 14.632 115.258 14.12L120.122 13.704C121.114 13.608 121.466 13.288 121.466 12.552C121.466 11.72 121.21 10.824 117.754 10.824C114.49 10.824 114.17 12.104 114.17 12.776H107.77V12.712C107.77 10.952 108.474 6.824 117.21 6.824H118.202C127.002 6.824 127.546 10.44 127.546 12.808V18.664C127.546 19.784 127.77 20.232 129.018 20.232H129.69V25H124.634C122.778 25 121.914 23.688 121.658 22.536ZM138.024 25V11.976H131.144V7.24H151.144V11.976H144.264V25H138.024ZM168.621 25V11.976H161.581C161.581 16.744 161.421 19.4 160.813 21.032C160.141 22.824 159.245 25 154.541 25H152.589V20.36H152.973C154.093 20.36 154.925 19.976 155.277 18.344C155.533 16.968 155.629 15.464 155.629 7.24H174.861V25H168.621ZM194.973 19.048H190.781L185.597 25H178.557L184.349 18.376C181.277 17.768 179.517 16.008 179.517 13.32V12.936C179.517 9.704 182.141 7.24 186.589 7.24H201.213V25H194.973V19.048ZM194.973 11.336H188.285C186.909 11.336 185.757 11.656 185.757 13.064V13.192C185.757 14.568 186.941 14.984 188.317 14.984H194.973V11.336ZM237.54 15.944V16.456C237.54 19.656 236.42 25.48 226.82 25.48H225.828C218.276 25.48 215.908 21.608 215.3 18.44H212.644V25H206.404V7.24H212.644V13.704H215.364C216.036 10.536 218.468 6.76 225.796 6.76H226.852C236.42 6.76 237.54 12.808 237.54 15.944ZM226.148 20.808H226.5C230.308 20.808 231.108 17.992 231.108 16.04C231.108 14.024 230.308 11.336 226.5 11.336H226.148C222.18 11.336 221.54 14.024 221.54 16.04C221.54 17.992 222.18 20.808 226.148 20.808ZM241.842 25V7.24H248.082V20.264H253.586V7.24H259.826V20.264H265.33V7.24H271.57V20.264H274.77V28.776H268.85V25H241.842ZM288.49 10.92C285.258 10.92 284.042 12.232 283.722 14.088H293.13C293.13 12.776 292.49 10.92 288.49 10.92ZM293.258 19.464H299.754C299.754 20.936 298.602 25.416 289.418 25.416H288.234C279.466 25.416 277.29 20.616 277.29 16.36V15.912C277.29 11.912 279.274 6.856 287.69 6.856H289.098C298.186 6.856 299.818 11.912 299.818 16.872V17.448H283.658C283.914 19.496 285.226 21.16 289.034 21.16C292.65 21.16 293.098 19.752 293.258 19.464ZM314.428 10.92C311.196 10.92 309.98 12.232 309.66 14.088H319.068C319.068 12.776 318.428 10.92 314.428 10.92ZM319.196 19.464H325.692C325.692 20.936 324.54 25.416 315.356 25.416H314.172C305.404 25.416 303.228 20.616 303.228 16.36V15.912C303.228 11.912 305.212 6.856 313.628 6.856H315.036C324.124 6.856 325.756 11.912 325.756 16.872V17.448H309.596C309.852 19.496 311.164 21.16 314.972 21.16C318.588 21.16 319.036 19.752 319.196 19.464ZM339.279 25V7.24H359.823V25H353.583V11.976H345.519V25H339.279ZM376.134 25.48H375.142C365.574 25.48 364.102 19.656 364.102 16.424V15.976C364.102 12.776 365.574 6.76 375.11 6.76H376.166C386.022 6.76 387.174 12.808 387.174 15.944V16.456C387.174 19.656 386.022 25.48 376.134 25.48ZM375.462 20.808H375.814C379.75 20.808 380.742 17.992 380.742 16.04C380.742 14.024 379.75 11.336 375.814 11.336H375.462C371.366 11.336 370.534 14.024 370.534 16.04C370.534 17.992 371.366 20.808 375.462 20.808ZM407.787 16.136V16.04C407.787 14.12 406.891 11.528 402.987 11.528H402.667C398.923 11.528 397.739 13.992 397.739 16.04V16.136C397.739 18.088 398.923 20.648 402.667 20.648H402.987C406.891 20.648 407.787 17.96 407.787 16.136ZM391.531 31.112V7.24H397.707V9.512C398.475 8.68 400.811 6.888 404.843 6.888H405.259C412.043 6.888 414.251 11.528 414.251 15.752V16.296C414.251 20.168 411.979 25.352 405.227 25.352H404.779C400.715 25.352 398.539 23.496 397.771 22.728V31.112H391.531ZM423.68 25V11.976H416.8V7.24H436.8V11.976H429.92V25H423.68ZM458.426 25.48H457.498V31.016H451.258V25.48H450.33C440.442 25.48 439.29 19.656 439.29 16.456V15.944C439.29 12.808 440.442 6.76 450.298 6.76H451.258V1.192H457.498V6.76H458.458C468.314 6.76 469.466 12.808 469.466 15.944V16.456C469.466 19.656 468.314 25.48 458.426 25.48ZM450.65 20.968H451.258V11.176H450.65C446.714 11.176 445.722 13.704 445.722 16.04C445.722 18.312 446.714 20.968 450.65 20.968ZM458.106 11.176H457.498V20.968H458.106C462.042 20.968 463.034 18.312 463.034 16.04C463.034 13.736 462.042 11.176 458.106 11.176ZM484.884 25.48H483.892C474.324 25.48 472.852 19.656 472.852 16.424V15.976C472.852 12.776 474.324 6.76 483.86 6.76H484.916C494.772 6.76 495.924 12.808 495.924 15.944V16.456C495.924 19.656 494.772 25.48 484.884 25.48ZM484.212 20.808H484.564C488.5 20.808 489.492 17.992 489.492 16.04C489.492 14.024 488.5 11.336 484.564 11.336H484.212C480.116 11.336 479.284 14.024 479.284 16.04C479.284 17.992 480.116 20.808 484.212 20.808ZM514.464 25V11.976H507.424C507.424 16.744 507.264 19.4 506.656 21.032C505.984 22.824 505.088 25 500.384 25H498.432V20.36H498.816C499.936 20.36 500.768 19.976 501.12 18.344C501.376 16.968 501.472 15.464 501.472 7.24H520.704V25H514.464ZM540.849 14.248L532.273 25H525.873V7.24H532.113V17.992L540.689 7.24H547.089V25H540.849V14.248ZM563.415 25.48H562.423C552.855 25.48 551.383 19.656 551.383 16.424V15.976C551.383 12.776 552.855 6.76 562.391 6.76H563.447C573.303 6.76 574.455 12.808 574.455 15.944V16.456C574.455 19.656 573.303 25.48 563.415 25.48ZM562.743 20.808H563.095C567.031 20.808 568.023 17.992 568.023 16.04C568.023 14.024 567.031 11.336 563.095 11.336H562.743C558.647 11.336 557.815 14.024 557.815 16.04C557.815 17.992 558.647 20.808 562.743 20.808ZM585.884 18.792V25H578.428V18.792H585.884ZM585.884 8.008V14.216H578.428V8.008H585.884ZM601.342 31.112V26.664H605.246C605.854 26.664 606.174 26.408 606.174 25.928V25.896C606.174 25.512 606.078 25.16 605.598 24.168L597.982 7.24H604.83L609.758 19.976L614.654 7.24H620.926L612.798 26.792C611.55 29.704 610.014 31.112 607.07 31.112H601.342ZM646.268 16.328V16.744C646.268 23.4 641.212 25.48 635.164 25.48H634.524C628.284 25.48 623.196 23.048 623.196 14.6V12.712C623.196 4.168 627.452 1.352 635.772 1.352H637.212C639.196 1.352 639.324 1.16 639.388 0.775999H645.5C645.5 4.52 644.092 6.088 639.74 6.088H635.772C631.164 6.088 629.404 7.528 629.308 10.76C630.94 9.064 633.436 7.912 637.372 7.912H637.564C641.788 7.912 646.268 10.056 646.268 16.328ZM634.588 20.808H634.94C637.756 20.808 639.836 19.4 639.836 16.488C639.836 13.672 637.724 12.296 634.972 12.296H634.588C631.516 12.296 629.628 13.608 629.628 16.52C629.628 19.464 631.548 20.808 634.588 20.808ZM660.897 10.92C657.665 10.92 656.449 12.232 656.129 14.088H665.537C665.537 12.776 664.897 10.92 660.897 10.92ZM665.665 19.464H672.161C672.161 20.936 671.009 25.416 661.825 25.416H660.641C651.873 25.416 649.697 20.616 649.697 16.36V15.912C649.697 11.912 651.681 6.856 660.097 6.856H661.505C670.593 6.856 672.225 11.912 672.225 16.872V17.448H656.065C656.321 19.496 657.633 21.16 661.441 21.16C665.057 21.16 665.505 19.752 665.665 19.464ZM674.714 28.776V20.264H676.858C678.074 17.832 678.266 12.552 678.426 7.24H697.21V20.264H700.41V28.776H694.49V25H680.634V28.776H674.714ZM682.746 20.264H690.97V11.976H684.026C683.93 14.28 683.61 17.8 682.746 20.264ZM719.099 14.248L710.523 25H704.123V7.24H710.363V17.992L718.939 7.24H725.339V25H719.099V14.248ZM735.617 25V11.976H728.737V7.24H748.737V11.976H741.857V25H735.617ZM762.459 10.92C759.227 10.92 758.011 12.232 757.691 14.088H767.099C767.099 12.776 766.459 10.92 762.459 10.92ZM767.227 19.464H773.723C773.723 20.936 772.571 25.416 763.387 25.416H762.203C753.435 25.416 751.259 20.616 751.259 16.36V15.912C751.259 11.912 753.243 6.856 761.659 6.856H763.067C772.155 6.856 773.787 11.912 773.787 16.872V17.448H757.627C757.883 19.496 759.195 21.16 763.003 21.16C766.619 21.16 767.067 19.752 767.227 19.464ZM792.909 18.024H799.437C799.437 20.712 797.837 25.48 789.293 25.48H787.725C778.861 25.48 777.197 19.72 777.197 16.36V15.912C777.197 12.552 778.765 6.76 787.693 6.76H789.165C797.741 6.76 799.437 11.432 799.437 13.992V14.024H792.909C792.813 13.512 792.205 11.304 788.525 11.304H788.205C784.525 11.304 783.661 13.832 783.661 15.976V16.008C783.661 18.216 784.717 20.84 788.333 20.84H788.653C792.365 20.84 792.909 18.44 792.909 18.024ZM803.686 25V7.24H809.926V12.328H814.79C820.87 12.328 823.238 15.016 823.238 18.408V18.792C823.238 22.504 820.87 25 814.79 25H803.686ZM809.926 20.776H814.022C815.302 20.776 816.838 20.392 816.838 18.664V18.568C816.838 16.968 815.302 16.552 814.022 16.552H809.926V20.776ZM112.221 88.024H118.749C118.749 90.712 117.149 95.48 108.605 95.48H107.037C98.1731 95.48 96.5091 89.72 96.5091 86.36V85.912C96.5091 82.552 98.0771 76.76 107.005 76.76H108.477C117.053 76.76 118.749 81.432 118.749 83.992V84.024H112.221C112.125 83.512 111.517 81.304 107.837 81.304H107.517C103.837 81.304 102.973 83.832 102.973 85.976V86.008C102.973 88.216 104.029 90.84 107.645 90.84H107.965C111.677 90.84 112.221 88.44 112.221 88.024ZM131.382 91.448C135.03 91.448 136.278 89.144 136.278 87.8V86.424C135.734 86.648 134.166 86.968 132.374 87.256C129.366 87.768 128.406 88.184 128.406 89.432V89.496C128.406 90.616 129.206 91.448 131.382 91.448ZM136.47 92.536C135.702 93.464 133.782 95.352 129.622 95.352H129.11C124.15 95.352 122.102 92.664 122.102 89.72V89.592C122.102 86.52 124.054 84.632 130.07 84.12L134.934 83.704C135.926 83.608 136.278 83.288 136.278 82.552C136.278 81.72 136.022 80.824 132.566 80.824C129.302 80.824 128.982 82.104 128.982 82.776H122.582V82.712C122.582 80.952 123.286 76.824 132.022 76.824H133.014C141.814 76.824 142.358 80.44 142.358 82.808V88.664C142.358 89.784 142.582 90.232 143.83 90.232H144.502V95H139.446C137.59 95 136.726 93.688 136.47 92.536ZM153.821 83.032V95H148.061V77.24H156.861L162.141 88.568L167.421 77.24H175.901V95H169.661V83.032L164.125 95H159.357L153.821 83.032ZM195.849 84.248L187.273 95H180.873V77.24H187.113V87.992L195.689 77.24H202.089V95H195.849V84.248ZM231.185 95H216.529V77.24H230.545C234.609 77.24 237.169 78.68 237.169 81.496V81.656C237.169 83.864 235.761 85.176 233.617 85.528C235.793 85.784 237.745 87.32 237.745 89.88V90.008C237.745 93.24 235.633 95 231.185 95ZM222.769 84.312H228.497C230.001 84.312 230.769 83.736 230.769 82.616V82.456C230.769 81.432 230.065 80.824 228.497 80.824H222.769V84.312ZM222.769 91.416H228.753C230.417 91.416 231.345 90.872 231.345 89.624V89.368C231.345 88.248 230.577 87.544 228.753 87.544H222.769V91.416ZM264.558 95L257.646 86.776V95H251.406V77.24H257.646V84.344L263.982 77.24H271.182L263.758 85.208L271.982 95H264.558ZM282.32 91.448C285.968 91.448 287.216 89.144 287.216 87.8V86.424C286.672 86.648 285.104 86.968 283.312 87.256C280.304 87.768 279.344 88.184 279.344 89.432V89.496C279.344 90.616 280.144 91.448 282.32 91.448ZM287.408 92.536C286.64 93.464 284.72 95.352 280.56 95.352H280.048C275.088 95.352 273.04 92.664 273.04 89.72V89.592C273.04 86.52 274.992 84.632 281.008 84.12L285.872 83.704C286.864 83.608 287.216 83.288 287.216 82.552C287.216 81.72 286.96 80.824 283.504 80.824C280.24 80.824 279.92 82.104 279.92 82.776H273.52V82.712C273.52 80.952 274.224 76.824 282.96 76.824H283.952C292.752 76.824 293.296 80.44 293.296 82.808V88.664C293.296 89.784 293.52 90.232 294.768 90.232H295.44V95H290.384C288.528 95 287.664 93.688 287.408 92.536ZM312.026 77.24H318.266V95H312.026V88.888C310.65 89.048 309.05 89.208 307.386 89.208C300.346 89.208 297.69 87.224 297.69 81.592V77.24H303.93V80.44C303.93 83.768 305.05 84.344 308.346 84.344C309.594 84.344 311.034 84.248 312.026 84.12V77.24ZM333.772 80.92C330.54 80.92 329.324 82.232 329.004 84.088H338.412C338.412 82.776 337.772 80.92 333.772 80.92ZM338.54 89.464H345.036C345.036 90.936 343.884 95.416 334.7 95.416H333.516C324.748 95.416 322.572 90.616 322.572 86.36V85.912C322.572 81.912 324.556 76.856 332.972 76.856H334.38C343.468 76.856 345.1 81.912 345.1 86.872V87.448H328.94C329.196 89.496 330.508 91.16 334.316 91.16C337.932 91.16 338.38 89.752 338.54 89.464ZM364.221 88.024H370.749C370.749 90.712 369.149 95.48 360.605 95.48H359.037C350.173 95.48 348.509 89.72 348.509 86.36V85.912C348.509 82.552 350.077 76.76 359.005 76.76H360.477C369.053 76.76 370.749 81.432 370.749 83.992V84.024H364.221C364.125 83.512 363.517 81.304 359.837 81.304H359.517C355.837 81.304 354.973 83.832 354.973 85.976V86.008C354.973 88.216 356.029 90.84 359.645 90.84H359.965C363.677 90.84 364.221 88.44 364.221 88.024ZM380.086 95V81.976H373.206V77.24H393.206V81.976H386.326V95H380.086ZM411.248 95H396.592V77.24H410.608C414.672 77.24 417.232 78.68 417.232 81.496V81.656C417.232 83.864 415.824 85.176 413.68 85.528C415.856 85.784 417.808 87.32 417.808 89.88V90.008C417.808 93.24 415.696 95 411.248 95ZM402.832 84.312H408.56C410.064 84.312 410.832 83.736 410.832 82.616V82.456C410.832 81.432 410.128 80.824 408.56 80.824H402.832V84.312ZM402.832 91.416H408.816C410.48 91.416 411.408 90.872 411.408 89.624V89.368C411.408 88.248 410.64 87.544 408.816 87.544H402.832V91.416ZM432.49 80.92C429.258 80.92 428.042 82.232 427.722 84.088H437.13C437.13 82.776 436.49 80.92 432.49 80.92ZM437.258 89.464H443.754C443.754 90.936 442.602 95.416 433.418 95.416H432.234C423.466 95.416 421.29 90.616 421.29 86.36V85.912C421.29 81.912 423.274 76.856 431.69 76.856H433.098C442.186 76.856 443.818 81.912 443.818 86.872V87.448H427.658C427.914 89.496 429.226 91.16 433.034 91.16C436.65 91.16 437.098 89.752 437.258 89.464ZM463.582 95H457.342V77.24H463.582V83.704H472.286V77.24H478.526V95H472.286V88.44H463.582V95ZM492.101 91.448C495.749 91.448 496.997 89.144 496.997 87.8V86.424C496.453 86.648 494.885 86.968 493.093 87.256C490.085 87.768 489.125 88.184 489.125 89.432V89.496C489.125 90.616 489.925 91.448 492.101 91.448ZM497.189 92.536C496.421 93.464 494.501 95.352 490.341 95.352H489.829C484.869 95.352 482.821 92.664 482.821 89.72V89.592C482.821 86.52 484.773 84.632 490.789 84.12L495.653 83.704C496.645 83.608 496.997 83.288 496.997 82.552C496.997 81.72 496.741 80.824 493.285 80.824C490.021 80.824 489.701 82.104 489.701 82.776H483.301V82.712C483.301 80.952 484.005 76.824 492.741 76.824H493.733C502.533 76.824 503.077 80.44 503.077 82.808V88.664C503.077 89.784 503.301 90.232 504.549 90.232H505.221V95H500.165C498.309 95 497.445 93.688 497.189 92.536ZM508.779 95V77.24H515.019V90.264H520.523V77.24H526.763V90.264H532.267V77.24H538.507V95H508.779ZM558.662 84.248L550.086 95H543.686V77.24H549.926V87.992L558.502 77.24H564.902V95H558.662V84.248ZM584.3 95L579.532 89.912L574.892 95H567.82L575.788 86.104L567.564 77.24H575.212L579.756 82.2L584.14 77.24H591.02L583.372 85.976L591.5 95H584.3ZM619.724 86.136V86.04C619.724 84.12 618.828 81.528 614.924 81.528H614.604C610.86 81.528 609.676 83.992 609.676 86.04V86.136C609.676 88.088 610.86 90.648 614.604 90.648H614.924C618.828 90.648 619.724 87.96 619.724 86.136ZM603.468 101.112V77.24H609.644V79.512C610.412 78.68 612.748 76.888 616.78 76.888H617.196C623.98 76.888 626.188 81.528 626.188 85.752V86.296C626.188 90.168 623.916 95.352 617.164 95.352H616.716C612.652 95.352 610.476 93.496 609.708 92.728V101.112H603.468ZM638.757 91.448C642.405 91.448 643.653 89.144 643.653 87.8V86.424C643.109 86.648 641.541 86.968 639.749 87.256C636.741 87.768 635.781 88.184 635.781 89.432V89.496C635.781 90.616 636.581 91.448 638.757 91.448ZM643.845 92.536C643.077 93.464 641.157 95.352 636.997 95.352H636.485C631.525 95.352 629.477 92.664 629.477 89.72V89.592C629.477 86.52 631.429 84.632 637.445 84.12L642.309 83.704C643.301 83.608 643.653 83.288 643.653 82.552C643.653 81.72 643.397 80.824 639.941 80.824C636.677 80.824 636.357 82.104 636.357 82.776H629.957V82.712C629.957 80.952 630.661 76.824 639.397 76.824H640.389C649.189 76.824 649.733 80.44 649.733 82.808V88.664C649.733 89.784 649.957 90.232 651.205 90.232H651.877V95H646.821C644.965 95 644.101 93.688 643.845 92.536ZM677.612 86.328V86.744C677.612 93.4 672.556 95.48 666.508 95.48H665.868C659.628 95.48 654.54 93.048 654.54 84.6V82.712C654.54 74.168 658.796 71.352 667.116 71.352H668.556C670.54 71.352 670.668 71.16 670.732 70.776H676.844C676.844 74.52 675.436 76.088 671.084 76.088H667.116C662.508 76.088 660.748 77.528 660.652 80.76C662.284 79.064 664.78 77.912 668.716 77.912H668.908C673.132 77.912 677.612 80.056 677.612 86.328ZM665.932 90.808H666.284C669.1 90.808 671.18 89.4 671.18 86.488C671.18 83.672 669.068 82.296 666.316 82.296H665.932C662.86 82.296 660.972 83.608 660.972 86.52C660.972 89.464 662.892 90.808 665.932 90.808ZM693.04 95.48H692.048C682.48 95.48 681.008 89.656 681.008 86.424V85.976C681.008 82.776 682.48 76.76 692.016 76.76H693.072C702.928 76.76 704.08 82.808 704.08 85.944V86.456C704.08 89.656 702.928 95.48 693.04 95.48ZM692.368 90.808H692.72C696.656 90.808 697.648 87.992 697.648 86.04C697.648 84.024 696.656 81.336 692.72 81.336H692.368C688.272 81.336 687.44 84.024 687.44 86.04C687.44 87.992 688.272 90.808 692.368 90.808ZM713.305 95V81.976H706.425V77.24H726.425V81.976H719.545V95H713.305Z" fill="#EBEBEB"/>
</svg>
