<svg width="215" height="14" viewBox="0 0 215 14" fill="none" xmlns="http://www.w3.org/2000/svg">
<path d="M9.496 12L3.768 6.4V12H0.472V0.0959997H3.768V4.992L9.336 0.0959997H13.528L7.256 5.552L13.8 12H9.496ZM19.9109 12.24H19.4149C14.6309 12.24 13.8949 9.328 13.8949 7.712V7.488C13.8949 5.888 14.6309 2.88 19.3989 2.88H19.9269C24.8549 2.88 25.4309 5.904 25.4309 7.472V7.728C25.4309 9.328 24.8549 12.24 19.9109 12.24ZM19.5749 9.904H19.7509C21.7189 9.904 22.2149 8.496 22.2149 7.52C22.2149 6.512 21.7189 5.168 19.7509 5.168H19.5749C17.5269 5.168 17.1109 6.512 17.1109 7.52C17.1109 8.496 17.5269 9.904 19.5749 9.904ZM30.6973 12H27.5773V3.12H30.6973V6.352H35.0493V3.12H38.1693V12H35.0493V8.72H30.6973V12ZM43.3088 12V5.488H39.8688V3.12H49.8688V5.488H46.4288V12H43.3088ZM55.7536 10.224C57.5776 10.224 58.2016 9.072 58.2016 8.4V7.712C57.9296 7.824 57.1456 7.984 56.2496 8.128C54.7456 8.384 54.2656 8.592 54.2656 9.216V9.248C54.2656 9.808 54.6656 10.224 55.7536 10.224ZM58.2976 10.768C57.9136 11.232 56.9536 12.176 54.8736 12.176H54.6176C52.1376 12.176 51.1136 10.832 51.1136 9.36V9.296C51.1136 7.76 52.0896 6.816 55.0976 6.56L57.5296 6.352C58.0256 6.304 58.2016 6.144 58.2016 5.776C58.2016 5.36 58.0736 4.912 56.3456 4.912C54.7136 4.912 54.5536 5.552 54.5536 5.888H51.3536V5.856C51.3536 4.976 51.7056 2.912 56.0736 2.912H56.5696C60.9696 2.912 61.2416 4.72 61.2416 5.904V8.832C61.2416 9.392 61.3536 9.616 61.9776 9.616H62.3136V12H59.7856C58.8576 12 58.4256 11.344 58.2976 10.768ZM70.7009 12L67.2449 7.888V12H64.1249V3.12H67.2449V6.672L70.4129 3.12H74.0129L70.3009 7.104L74.4129 12H70.7009ZM78.2463 12V5.488H74.8063V3.12H84.8063V5.488H81.3663V12H78.2463ZM89.6191 12H86.4991V3.12H89.6191V6.352H93.9711V3.12H97.0911V12H93.9711V8.72H89.6191V12ZM99.6866 12V3.12H102.807V5.664H105.239C108.279 5.664 109.463 7.008 109.463 8.704V8.896C109.463 10.752 108.279 12 105.239 12H99.6866ZM102.807 9.888H104.855C105.495 9.888 106.263 9.696 106.263 8.832V8.784C106.263 7.984 105.495 7.776 104.855 7.776H102.807V9.888ZM113.719 3.12V12H110.599V3.12H113.719ZM121.48 4.96C119.864 4.96 119.256 5.616 119.096 6.544H123.8C123.8 5.888 123.48 4.96 121.48 4.96ZM123.864 9.232H127.112C127.112 9.968 126.536 12.208 121.944 12.208H121.352C116.968 12.208 115.88 9.808 115.88 7.68V7.456C115.88 5.456 116.872 2.928 121.08 2.928H121.784C126.328 2.928 127.144 5.456 127.144 7.936V8.224H119.064C119.192 9.248 119.848 10.08 121.752 10.08C123.56 10.08 123.784 9.376 123.864 9.232ZM133.169 13.888V9.632H134.241C134.849 8.416 134.945 5.776 135.025 3.12H144.417V9.632H146.017V13.888H143.057V12H136.129V13.888H133.169ZM137.185 9.632H141.297V5.488H137.825C137.777 6.64 137.617 8.4 137.185 9.632ZM152.066 10.224C153.89 10.224 154.514 9.072 154.514 8.4V7.712C154.242 7.824 153.458 7.984 152.562 8.128C151.058 8.384 150.578 8.592 150.578 9.216V9.248C150.578 9.808 150.978 10.224 152.066 10.224ZM154.61 10.768C154.226 11.232 153.266 12.176 151.186 12.176H150.93C148.45 12.176 147.426 10.832 147.426 9.36V9.296C147.426 7.76 148.402 6.816 151.41 6.56L153.842 6.352C154.338 6.304 154.514 6.144 154.514 5.776C154.514 5.36 154.386 4.912 152.658 4.912C151.026 4.912 150.866 5.552 150.866 5.888H147.666V5.856C147.666 4.976 148.018 2.912 152.386 2.912H152.882C157.282 2.912 157.554 4.72 157.554 5.904V8.832C157.554 9.392 157.666 9.616 158.29 9.616H158.626V12H156.098C155.17 12 154.738 11.344 154.61 10.768ZM163.525 12H160.405V3.12H163.525V6.352H167.877V3.12H170.997V12H167.877V8.72H163.525V12ZM176.713 12H173.593V3.12H176.713V6.352H181.065V3.12H184.185V12H181.065V8.72H176.713V12ZM186.78 12V3.12H189.9V5.664H192.332C195.372 5.664 196.556 7.008 196.556 8.704V8.896C196.556 10.752 195.372 12 192.332 12H186.78ZM189.9 9.888H191.948C192.588 9.888 193.356 9.696 193.356 8.832V8.784C193.356 7.984 192.588 7.776 191.948 7.776H189.9V9.888ZM200.812 3.12V12H197.692V3.12H200.812ZM208.573 4.96C206.957 4.96 206.349 5.616 206.189 6.544H210.893C210.893 5.888 210.573 4.96 208.573 4.96ZM210.957 9.232H214.205C214.205 9.968 213.629 12.208 209.037 12.208H208.445C204.061 12.208 202.973 9.808 202.973 7.68V7.456C202.973 5.456 203.965 2.928 208.173 2.928H208.877C213.421 2.928 214.237 5.456 214.237 7.936V8.224H206.157C206.285 9.248 206.941 10.08 208.845 10.08C210.653 10.08 210.877 9.376 210.957 9.232Z" fill="white"/>
</svg>
