<svg width="332" height="31" viewBox="0 0 332 31" fill="none" xmlns="http://www.w3.org/2000/svg">
<path d="M20.7691 24V14.432H7.48913V24H0.897125V0.191999H7.48913V9.024H20.7691V0.191999H27.3611V24H20.7691ZM41.2729 20.448C44.9209 20.448 46.1689 18.144 46.1689 16.8V15.424C45.6249 15.648 44.0569 15.968 42.2649 16.256C39.2569 16.768 38.2969 17.184 38.2969 18.432V18.496C38.2969 19.616 39.0969 20.448 41.2729 20.448ZM46.3609 21.536C45.5929 22.464 43.6729 24.352 39.5129 24.352H39.0009C34.0409 24.352 31.9929 21.664 31.9929 18.72V18.592C31.9929 15.52 33.9449 13.632 39.9609 13.12L44.8249 12.704C45.8169 12.608 46.1689 12.288 46.1689 11.552C46.1689 10.72 45.9129 9.824 42.4569 9.824C39.1929 9.824 38.8729 11.104 38.8729 11.776H32.4729V11.712C32.4729 9.952 33.1769 5.824 41.9129 5.824H42.9049C51.7049 5.824 52.2489 9.44 52.2489 11.808V17.664C52.2489 18.784 52.4729 19.232 53.7209 19.232H54.3929V24H49.3369C47.4809 24 46.6169 22.688 46.3609 21.536ZM57.9514 24V6.24H64.1914V19.264H69.6954V6.24H75.9354V19.264H81.4394V6.24H87.6794V24H57.9514ZM107.834 13.248L99.2576 24H92.8576V6.24H99.0976V16.992L107.674 6.24H114.074V24H107.834V13.248ZM128.514 24V6.24H149.058V24H142.818V10.976H134.754V24H128.514ZM170.553 15.136V15.04C170.553 13.12 169.657 10.528 165.753 10.528H165.433C161.689 10.528 160.505 12.992 160.505 15.04V15.136C160.505 17.088 161.689 19.648 165.433 19.648H165.753C169.657 19.648 170.553 16.96 170.553 15.136ZM154.297 30.112V6.24H160.473V8.512C161.241 7.68 163.577 5.888 167.609 5.888H168.025C174.809 5.888 177.017 10.528 177.017 14.752V15.296C177.017 19.168 174.745 24.352 167.993 24.352H167.545C163.481 24.352 161.305 22.496 160.537 21.728V30.112H154.297ZM192.494 24.48H191.502C181.934 24.48 180.462 18.656 180.462 15.424V14.976C180.462 11.776 181.934 5.76 191.47 5.76H192.526C202.382 5.76 203.534 11.808 203.534 14.944V15.456C203.534 18.656 202.382 24.48 192.494 24.48ZM191.822 19.808H192.174C196.11 19.808 197.102 16.992 197.102 15.04C197.102 13.024 196.11 10.336 192.174 10.336H191.822C187.726 10.336 186.894 13.024 186.894 15.04C186.894 16.992 187.726 19.808 191.822 19.808ZM205.886 27.776V19.264H208.03C209.246 16.832 209.438 11.552 209.598 6.24H228.382V19.264H231.582V27.776H225.662V24H211.806V27.776H205.886ZM213.918 19.264H222.142V10.976H215.198C215.102 13.28 214.782 16.8 213.918 19.264ZM235.827 30.112V25.664H239.731C240.339 25.664 240.659 25.408 240.659 24.928V24.896C240.659 24.512 240.563 24.16 240.083 23.168L232.467 6.24H239.315L244.243 18.976L249.139 6.24H255.411L247.283 25.792C246.035 28.704 244.499 30.112 241.555 30.112H235.827ZM271.792 24L264.88 15.776V24H258.64V6.24H264.88V13.344L271.216 6.24H278.416L270.992 14.208L279.216 24H271.792ZM286.883 24V10.976H280.003V6.24H300.003V10.976H293.123V24H286.883ZM303.389 24V6.24H309.629V11.328H314.493C320.573 11.328 322.941 14.016 322.941 17.408V17.792C322.941 21.504 320.573 24 314.493 24H303.389ZM309.629 19.776H313.725C315.005 19.776 316.541 19.392 316.541 17.664V17.568C316.541 15.968 315.005 15.552 313.725 15.552H309.629V19.776ZM331.453 6.24V24H325.213V6.24H331.453Z" fill="#EBEBEB"/>
</svg>
