<svg width="127" height="14" viewBox="0 0 127 14" fill="none" xmlns="http://www.w3.org/2000/svg">
<path d="M8.096 0.903999H8.8C14.368 0.903999 15.952 4.168 15.952 6.776V7.256C15.952 9.816 14.368 13.192 8.8 13.192H8.096C2.528 13.192 0.944 9.816 0.944 7.256V6.776C0.944 4.184 2.528 0.903999 8.096 0.903999ZM12.528 7.128V6.904C12.528 5.432 11.808 3.624 8.448 3.624C5.12 3.624 4.368 5.432 4.368 6.904V7.128C4.368 8.568 5.168 10.456 8.448 10.456C11.792 10.456 12.528 8.568 12.528 7.128ZM29.4196 13L25.9636 8.888V13H22.8436V4.12H25.9636V7.672L29.1316 4.12H32.7316L29.0196 8.104L33.1316 13H29.4196ZM39.5828 13.24H39.0868C34.3028 13.24 33.5668 10.328 33.5668 8.712V8.488C33.5668 6.888 34.3028 3.88 39.0708 3.88H39.5988C44.5268 3.88 45.1028 6.904 45.1028 8.472V8.728C45.1028 10.328 44.5268 13.24 39.5828 13.24ZM39.2468 10.904H39.4228C41.3908 10.904 41.8868 9.496 41.8868 8.52C41.8868 7.512 41.3908 6.168 39.4228 6.168H39.2468C37.1988 6.168 36.7828 7.512 36.7828 8.52C36.7828 9.496 37.1988 10.904 39.2468 10.904ZM50.1291 7.016V13H47.2491V4.12H51.6491L54.2891 9.784L56.9291 4.12H61.1691V13H58.0491V7.016L55.2811 13H52.8971L50.1291 7.016ZM63.6554 13V4.12H73.9274V13H70.8074V6.488H66.7754V13H63.6554ZM80.7068 11.224C82.5308 11.224 83.1548 10.072 83.1548 9.4V8.712C82.8828 8.824 82.0988 8.984 81.2028 9.128C79.6988 9.384 79.2188 9.592 79.2188 10.216V10.248C79.2188 10.808 79.6188 11.224 80.7068 11.224ZM83.2508 11.768C82.8668 12.232 81.9068 13.176 79.8268 13.176H79.5708C77.0908 13.176 76.0668 11.832 76.0668 10.36V10.296C76.0668 8.76 77.0428 7.816 80.0508 7.56L82.4828 7.352C82.9788 7.304 83.1548 7.144 83.1548 6.776C83.1548 6.36 83.0268 5.912 81.2988 5.912C79.6668 5.912 79.5068 6.552 79.5068 6.888H76.3068V6.856C76.3068 5.976 76.6588 3.912 81.0268 3.912H81.5228C85.9228 3.912 86.1948 5.72 86.1948 6.904V9.832C86.1948 10.392 86.3068 10.616 86.9308 10.616H87.2668V13H84.7388C83.8108 13 83.3788 12.344 83.2508 11.768ZM92.166 13H89.046V4.12H92.166V7.352H96.518V4.12H99.638V13H96.518V9.72H92.166V13ZM109.722 7.624L105.434 13H102.234V4.12H105.354V9.496L109.642 4.12H112.842V13H109.722V7.624ZM122.925 7.624L118.637 13H115.437V4.12H118.557V9.496L122.845 4.12H126.045V13H122.925V7.624Z" fill="white"/>
</svg>
