<svg width="192" height="13" viewBox="0 0 192 13" fill="none" xmlns="http://www.w3.org/2000/svg">
<path d="M0.472 12V0.0959997H12.808V12H9.512V2.72H3.768V12H0.472ZM21.1453 12.24H20.6493C15.8653 12.24 15.1293 9.328 15.1293 7.712V7.488C15.1293 5.888 15.8653 2.88 20.6333 2.88H21.1613C26.0893 2.88 26.6653 5.904 26.6653 7.472V7.728C26.6653 9.328 26.0893 12.24 21.1453 12.24ZM20.8093 9.904H20.9853C22.9533 9.904 23.4493 8.496 23.4493 7.52C23.4493 6.512 22.9533 5.168 20.9853 5.168H20.8093C18.7613 5.168 18.3453 6.512 18.3453 7.52C18.3453 8.496 18.7613 9.904 20.8093 9.904ZM35.9354 12V5.488H32.4154C32.4154 7.872 32.3354 9.2 32.0314 10.016C31.6954 10.912 31.2474 12 28.8954 12H27.9194V9.68H28.1114C28.6714 9.68 29.0874 9.488 29.2634 8.672C29.3914 7.984 29.4394 7.232 29.4394 3.12H39.0554V12H35.9354ZM46.8078 4.96C45.1918 4.96 44.5838 5.616 44.4238 6.544H49.1278C49.1278 5.888 48.8078 4.96 46.8078 4.96ZM49.1918 9.232H52.4398C52.4398 9.968 51.8638 12.208 47.2718 12.208H46.6798C42.2958 12.208 41.2078 9.808 41.2078 7.68V7.456C41.2078 5.456 42.1998 2.928 46.4078 2.928H47.1118C51.6558 2.928 52.4718 5.456 52.4718 7.936V8.224H44.3918C44.5198 9.248 45.1758 10.08 47.0798 10.08C48.8878 10.08 49.1118 9.376 49.1918 9.232ZM64.4984 9.376V9.472C64.4984 11.248 63.0104 12.24 59.6024 12.24H59.3144C55.6664 12.24 54.0824 10.88 54.0824 9.04V8.912H57.4264C57.4744 9.904 58.3864 10.272 59.4744 10.272C60.6424 10.272 61.2824 9.92 61.2824 9.216V9.168C61.2824 8.512 60.7704 8.352 59.8744 8.352H57.7624V6.448H59.8744C60.5624 6.448 60.9944 6.176 60.9944 5.664V5.616C60.9944 5.088 60.4664 4.816 59.3944 4.816C58.1944 4.816 57.5544 5.104 57.5064 5.728H54.1624V5.68C54.1624 3.776 56.3864 2.88 59.2824 2.88H59.5384C62.5304 2.88 64.2104 3.6 64.2104 5.264V5.328C64.2104 6.672 63.1864 7.184 62.4504 7.36C63.3464 7.536 64.4984 7.968 64.4984 9.376ZM69.791 12H66.671V3.12H69.791V6.352H74.143V3.12H77.263V12H74.143V8.72H69.791V12ZM79.8585 12V3.12H82.9785V5.664H85.4105C88.4505 5.664 89.6345 7.008 89.6345 8.704V8.896C89.6345 10.752 88.4505 12 85.4105 12H79.8585ZM82.9785 9.888H85.0265C85.6665 9.888 86.4345 9.696 86.4345 8.832V8.784C86.4345 7.984 85.6665 7.776 85.0265 7.776H82.9785V9.888ZM93.8905 3.12V12H90.7705V3.12H93.8905ZM101.652 4.96C100.036 4.96 99.4275 5.616 99.2675 6.544H103.972C103.972 5.888 103.652 4.96 101.652 4.96ZM104.036 9.232H107.284C107.284 9.968 106.708 12.208 102.116 12.208H101.524C97.1395 12.208 96.0515 9.808 96.0515 7.68V7.456C96.0515 5.456 97.0435 2.928 101.252 2.928H101.956C106.5 2.928 107.316 5.456 107.316 7.936V8.224H99.2355C99.3635 9.248 100.02 10.08 101.924 10.08C103.732 10.08 103.956 9.376 104.036 9.232ZM121.501 8.512H124.765C124.765 9.856 123.965 12.24 119.693 12.24H118.909C114.477 12.24 113.645 9.36 113.645 7.68V7.456C113.645 5.776 114.429 2.88 118.893 2.88H119.629C123.917 2.88 124.765 5.216 124.765 6.496V6.512H121.501C121.453 6.256 121.149 5.152 119.309 5.152H119.149C117.309 5.152 116.877 6.416 116.877 7.488V7.504C116.877 8.608 117.405 9.92 119.213 9.92H119.373C121.229 9.92 121.501 8.72 121.501 8.512ZM134.314 8.512H137.578C137.578 9.856 136.778 12.24 132.506 12.24H131.722C127.29 12.24 126.458 9.36 126.458 7.68V7.456C126.458 5.776 127.242 2.88 131.706 2.88H132.442C136.73 2.88 137.578 5.216 137.578 6.496V6.512H134.314C134.266 6.256 133.962 5.152 132.122 5.152H131.962C130.122 5.152 129.69 6.416 129.69 7.488V7.504C129.69 8.608 130.218 9.92 132.026 9.92H132.186C134.042 9.92 134.314 8.72 134.314 8.512ZM139.702 12V3.12H142.822V5.664H145.254C148.294 5.664 149.478 7.008 149.478 8.704V8.896C149.478 10.752 148.294 12 145.254 12H139.702ZM142.822 9.888H144.87C145.51 9.888 146.278 9.696 146.278 8.832V8.784C146.278 7.984 145.51 7.776 144.87 7.776H142.822V9.888ZM153.734 3.12V12H150.614V3.12H153.734ZM163.607 12V5.488H160.087C160.087 7.872 160.007 9.2 159.703 10.016C159.367 10.912 158.919 12 156.567 12H155.591V9.68H155.783C156.343 9.68 156.759 9.488 156.935 8.672C157.063 7.984 157.111 7.232 157.111 3.12H166.727V12H163.607ZM175.92 12L172.464 7.888V12H169.344V3.12H172.464V6.672L175.632 3.12H179.232L175.52 7.104L179.632 12H175.92ZM188.409 6.624L184.121 12H180.921V3.12H184.041V8.496L188.329 3.12H191.529V12H188.409V6.624Z" fill="white"/>
</svg>
