<svg width="74" height="16" viewBox="0 0 74 16" fill="none" xmlns="http://www.w3.org/2000/svg">
<path d="M15.784 0.0959997L10.488 9.36C9.464 11.104 8.536 12 6.104 12H4.056V9.216H6.12C6.312 9.216 6.408 9.152 6.408 9.008V8.992C6.408 8.816 6.36 8.72 6.184 8.448L0.968 0.0959997H4.792L8.648 6.496L12.152 0.0959997H15.784ZM22.8763 8.512H26.1403C26.1403 9.856 25.3403 12.24 21.0683 12.24H20.2843C15.8523 12.24 15.0203 9.36 15.0203 7.68V7.456C15.0203 5.776 15.8043 2.88 20.2683 2.88H21.0043C25.2923 2.88 26.1403 5.216 26.1403 6.496V6.512H22.8763C22.8283 6.256 22.5243 5.152 20.6843 5.152H20.5243C18.6843 5.152 18.2523 6.416 18.2523 7.488V7.504C18.2523 8.608 18.7803 9.92 20.5883 9.92H20.7483C22.6042 9.92 22.8763 8.72 22.8763 8.512ZM35.3885 12V5.488H31.8685C31.8685 7.872 31.7885 9.2 31.4845 10.016C31.1485 10.912 30.7005 12 28.3485 12H27.3725V9.68H27.5645C28.1245 9.68 28.5405 9.488 28.7165 8.672C28.8445 7.984 28.8925 7.232 28.8925 3.12H38.5085V12H35.3885ZM41.7649 15.056V12.832H43.7169C44.0209 12.832 44.1809 12.704 44.1809 12.464V12.448C44.1809 12.256 44.1329 12.08 43.8929 11.584L40.0849 3.12H43.5089L45.9729 9.488L48.4209 3.12H51.5569L47.4929 12.896C46.8689 14.352 46.1009 15.056 44.6289 15.056H41.7649ZM53.1398 12V3.12H60.8837V5.488H56.2598V12H53.1398ZM70.0653 6.624L65.7773 12H62.5773V3.12H65.6973V8.496L69.9853 3.12H73.1853V12H70.0653V6.624Z" fill="white"/>
</svg>
