<svg width="421" height="95" viewBox="0 0 421 95" fill="none" xmlns="http://www.w3.org/2000/svg">
<path d="M19.3691 24V15.168C17.3211 15.424 15.4331 15.584 13.5131 15.584C5.80113 15.584 0.713125 14.272 0.713125 6.688V0.191999H7.30513V5.6C7.30513 9.44 9.25713 10.368 14.4091 10.368C16.2971 10.368 18.4411 10.176 19.3691 10.016V0.191999H25.9611V24H19.3691ZM36.5706 24V10.976H29.6906V6.24H49.6906V10.976H42.8106V24H36.5706ZM64.2124 24.48H63.2204C53.6524 24.48 52.1804 18.656 52.1804 15.424V14.976C52.1804 11.776 53.6524 5.76 63.1884 5.76H64.2444C74.1004 5.76 75.2524 11.808 75.2524 14.944V15.456C75.2524 18.656 74.1004 24.48 64.2124 24.48ZM63.5404 19.808H63.8924C67.8284 19.808 68.8204 16.992 68.8204 15.04C68.8204 13.024 67.8284 10.336 63.8924 10.336H63.5404C59.4444 10.336 58.6124 13.024 58.6124 15.04C58.6124 16.992 59.4444 19.808 63.5404 19.808ZM94.5551 12.032V24H88.7951V6.24H97.5951L102.875 17.568L108.155 6.24H116.635V24H110.395V12.032L104.859 24H100.091L94.5551 12.032ZM121.608 24V6.24H127.848V11.328H132.712C138.792 11.328 141.16 14.016 141.16 17.408V17.792C141.16 21.504 138.792 24 132.712 24H121.608ZM127.848 19.776H131.944C133.224 19.776 134.76 19.392 134.76 17.664V17.568C134.76 15.968 133.224 15.552 131.944 15.552H127.848V19.776ZM149.672 6.24V24H143.432V6.24H149.672ZM164.108 24V6.24H184.652V24H178.412V10.976H170.348V24H164.108ZM206.146 15.136V15.04C206.146 13.12 205.25 10.528 201.346 10.528H201.026C197.282 10.528 196.098 12.992 196.098 15.04V15.136C196.098 17.088 197.282 19.648 201.026 19.648H201.346C205.25 19.648 206.146 16.96 206.146 15.136ZM189.89 30.112V6.24H196.066V8.512C196.834 7.68 199.17 5.888 203.202 5.888H203.618C210.402 5.888 212.61 10.528 212.61 14.752V15.296C212.61 19.168 210.338 24.352 203.586 24.352H203.138C199.074 24.352 196.898 22.496 196.13 21.728V30.112H189.89ZM227.287 9.92C224.055 9.92 222.839 11.232 222.519 13.088H231.927C231.927 11.776 231.287 9.92 227.287 9.92ZM232.055 18.464H238.551C238.551 19.936 237.399 24.416 228.215 24.416H227.031C218.263 24.416 216.087 19.616 216.087 15.36V14.912C216.087 10.912 218.071 5.856 226.487 5.856H227.895C236.983 5.856 238.615 10.912 238.615 15.872V16.448H222.455C222.711 18.496 224.023 20.16 227.831 20.16C231.447 20.16 231.895 18.752 232.055 18.464ZM241.104 27.776V19.264H243.248C244.464 16.832 244.656 11.552 244.816 6.24H263.6V19.264H266.8V27.776H260.88V24H247.024V27.776H241.104ZM249.136 19.264H257.36V10.976H250.416C250.32 13.28 250 16.8 249.136 19.264ZM285.074 24V10.976H278.034C278.034 15.744 277.874 18.4 277.266 20.032C276.594 21.824 275.698 24 270.994 24H269.042V19.36H269.426C270.546 19.36 271.378 18.976 271.73 17.344C271.986 15.968 272.082 14.464 272.082 6.24H291.314V24H285.074ZM307.619 24.48H306.627C297.059 24.48 295.587 18.656 295.587 15.424V14.976C295.587 11.776 297.059 5.76 306.595 5.76H307.651C317.507 5.76 318.659 11.808 318.659 14.944V15.456C318.659 18.656 317.507 24.48 307.619 24.48ZM306.947 19.808H307.299C311.235 19.808 312.227 16.992 312.227 15.04C312.227 13.024 311.235 10.336 307.299 10.336H306.947C302.851 10.336 302.019 13.024 302.019 15.04C302.019 16.992 302.851 19.808 306.947 19.808ZM322.951 24V6.24H338.439V10.976H329.191V24H322.951ZM350.21 20.448C353.858 20.448 355.106 18.144 355.106 16.8V15.424C354.562 15.648 352.994 15.968 351.202 16.256C348.194 16.768 347.234 17.184 347.234 18.432V18.496C347.234 19.616 348.034 20.448 350.21 20.448ZM355.298 21.536C354.53 22.464 352.61 24.352 348.45 24.352H347.938C342.978 24.352 340.93 21.664 340.93 18.72V18.592C340.93 15.52 342.882 13.632 348.898 13.12L353.762 12.704C354.754 12.608 355.106 12.288 355.106 11.552C355.106 10.72 354.85 9.824 351.394 9.824C348.13 9.824 347.81 11.104 347.81 11.776H341.41V11.712C341.41 9.952 342.114 5.824 350.85 5.824H351.842C360.642 5.824 361.186 9.44 361.186 11.808V17.664C361.186 18.784 361.41 19.232 362.658 19.232H363.33V24H358.274C356.418 24 355.554 22.688 355.298 21.536ZM377.225 9.92C373.993 9.92 372.777 11.232 372.457 13.088H381.865C381.865 11.776 381.225 9.92 377.225 9.92ZM381.993 18.464H388.489C388.489 19.936 387.337 24.416 378.153 24.416H376.969C368.201 24.416 366.025 19.616 366.025 15.36V14.912C366.025 10.912 368.009 5.856 376.425 5.856H377.833C386.921 5.856 388.553 10.912 388.553 15.872V16.448H372.393C372.649 18.496 373.961 20.16 377.769 20.16C381.385 20.16 381.833 18.752 381.993 18.464ZM398.586 12.032V24H392.826V6.24H401.626L406.906 17.568L412.186 6.24H420.666V24H414.426V12.032L408.89 24H404.122L398.586 12.032ZM38.8945 94H32.6545V76.24H38.8945V82.704H47.5985V76.24H53.8385V94H47.5985V87.44H38.8945V94ZM67.4135 90.448C71.0615 90.448 72.3095 88.144 72.3095 86.8V85.424C71.7655 85.648 70.1975 85.968 68.4055 86.256C65.3975 86.768 64.4375 87.184 64.4375 88.432V88.496C64.4375 89.616 65.2375 90.448 67.4135 90.448ZM72.5015 91.536C71.7335 92.464 69.8135 94.352 65.6535 94.352H65.1415C60.1815 94.352 58.1335 91.664 58.1335 88.72V88.592C58.1335 85.52 60.0855 83.632 66.1015 83.12L70.9655 82.704C71.9575 82.608 72.3095 82.288 72.3095 81.552C72.3095 80.72 72.0535 79.824 68.5975 79.824C65.3335 79.824 65.0135 81.104 65.0135 81.776H58.6135V81.712C58.6135 79.952 59.3175 75.824 68.0535 75.824H69.0455C77.8455 75.824 78.3895 79.44 78.3895 81.808V87.664C78.3895 88.784 78.6135 89.232 79.8615 89.232H80.5335V94H75.4775C73.6215 94 72.7575 92.688 72.5015 91.536ZM84.092 94V76.24H90.332V89.264H95.836V76.24H102.076V89.264H107.58V76.24H113.82V94H84.092ZM133.974 83.248L125.398 94H118.998V76.24H125.238V86.992L133.814 76.24H140.214V94H133.974V83.248ZM151.165 82.032V94H145.405V76.24H154.205L159.485 87.568L164.765 76.24H173.245V94H167.005V82.032L161.469 94H156.701L151.165 82.032ZM200.683 94L193.771 85.776V94H187.531V76.24H193.771V83.344L200.107 76.24H207.307L199.883 84.208L208.107 94H200.683ZM224.933 94V80.976H217.893C217.893 85.744 217.733 88.4 217.125 90.032C216.453 91.824 215.557 94 210.853 94H208.901V89.36H209.285C210.405 89.36 211.237 88.976 211.589 87.344C211.845 85.968 211.941 84.464 211.941 76.24H231.173V94H224.933ZM251.318 83.248L242.742 94H236.342V76.24H242.582V86.992L251.158 76.24H257.558V94H251.318V83.248ZM273.084 79.92C269.852 79.92 268.636 81.232 268.316 83.088H277.724C277.724 81.776 277.084 79.92 273.084 79.92ZM277.852 88.464H284.348C284.348 89.936 283.196 94.416 274.012 94.416H272.828C264.06 94.416 261.884 89.616 261.884 85.36V84.912C261.884 80.912 263.868 75.856 272.284 75.856H273.692C282.78 75.856 284.412 80.912 284.412 85.872V86.448H268.252C268.508 88.496 269.82 90.16 273.628 90.16C277.244 90.16 277.692 88.752 277.852 88.464ZM294.926 94H288.686V76.24H294.926V82.704H303.63V76.24H309.87V94H303.63V87.44H294.926V94ZM320.149 94V80.976H313.269V76.24H333.269V80.976H326.389V94H320.149ZM345.039 90.448C348.687 90.448 349.935 88.144 349.935 86.8V85.424C349.391 85.648 347.823 85.968 346.031 86.256C343.023 86.768 342.062 87.184 342.062 88.432V88.496C342.062 89.616 342.863 90.448 345.039 90.448ZM350.127 91.536C349.359 92.464 347.439 94.352 343.279 94.352H342.767C337.807 94.352 335.759 91.664 335.759 88.72V88.592C335.759 85.52 337.711 83.632 343.727 83.12L348.591 82.704C349.583 82.608 349.935 82.288 349.935 81.552C349.935 80.72 349.679 79.824 346.223 79.824C342.959 79.824 342.639 81.104 342.639 81.776H336.239V81.712C336.239 79.952 336.943 75.824 345.679 75.824H346.671C355.471 75.824 356.015 79.44 356.015 81.808V87.664C356.015 88.784 356.239 89.232 357.487 89.232H358.159V94H353.103C351.247 94 350.383 92.688 350.127 91.536ZM367.477 82.032V94H361.717V76.24H370.517L375.797 87.568L381.077 76.24H389.557V94H383.317V82.032L377.781 94H373.013L367.477 82.032Z" fill="#EBEBEB"/>
</svg>
