<svg width="64" height="17" viewBox="0 0 64 17" fill="none" xmlns="http://www.w3.org/2000/svg">
<path d="M10.297 16.231H9.33101C2.19101 16.231 0.301012 11.653 0.301012 8.461V7.831C0.301012 4.576 2.19101 0.144999 9.33101 0.144999H10.297C16.849 0.144999 19.033 3.358 19.033 6.319V6.361H14.581C14.518 5.92 13.93 3.715 9.81401 3.715C5.99201 3.715 4.79501 5.857 4.79501 7.957V8.251C4.79501 10.183 6.03401 12.64 9.83501 12.64C13.993 12.64 14.518 10.393 14.581 9.889H19.033V9.952C19.033 12.808 16.933 16.231 10.297 16.231ZM26.4636 3.82V7.138H32.4906C34.2546 7.138 34.7376 6.382 34.7376 5.479V5.437C34.7376 4.534 34.2546 3.82 32.4906 3.82H26.4636ZM35.9766 8.482C38.0976 8.965 39.3786 10.246 39.3786 12.535V14.152C39.3786 15.328 39.4836 15.643 39.6306 15.895V16H35.1576C35.0946 15.895 35.0106 15.601 35.0106 14.908V13.627C35.0106 11.611 34.2756 10.687 32.0916 10.687H26.4636V16H22.1376V0.376H32.6586C38.6016 0.376 39.2736 2.854 39.2736 4.555V4.765C39.2736 6.718 37.9296 8.041 35.9766 8.482ZM42.7479 16V0.376H48.5019L53.4789 10.96L58.6029 0.376H63.9999V16H59.7789V5.773L55.0329 16H51.6519L46.9059 5.773V16H42.7479Z" fill="#EBEBEB"/>
</svg>
