<svg width="164" height="21" viewBox="0 0 164 21" fill="none" xmlns="http://www.w3.org/2000/svg">
<path d="M0.395867 16V0.376H6.14987L11.1269 10.96L16.2509 0.376H21.6479V16H17.4269V5.773L12.6809 16H9.29987L4.55387 5.773V16H0.395867ZM32.5949 16.315H31.9439C25.6649 16.315 24.6989 12.493 24.6989 10.372V10.078C24.6989 7.978 25.6649 4.03 31.9229 4.03H32.6159C39.0839 4.03 39.8399 7.999 39.8399 10.057V10.393C39.8399 12.493 39.0839 16.315 32.5949 16.315ZM32.1539 13.249H32.3849C34.9679 13.249 35.6189 11.401 35.6189 10.12C35.6189 8.797 34.9679 7.033 32.3849 7.033H32.1539C29.4659 7.033 28.9199 8.797 28.9199 10.12C28.9199 11.401 29.4659 13.249 32.1539 13.249ZM51.6451 16.231H51.3511C48.5161 16.231 47.0671 14.95 46.5631 14.446C46.3951 14.95 46.2901 15.496 46.2271 16H42.6991V0.102999H46.7941V5.794C47.3191 5.269 48.7051 4.114 51.4141 4.114H51.6871C56.1391 4.114 57.5881 7.138 57.5881 9.931V10.288C57.5881 12.871 56.0971 16.231 51.6451 16.231ZM53.3461 10.183V10.12C53.3461 8.86 52.7581 7.159 50.1961 7.159H49.9861C47.5291 7.159 46.7521 8.776 46.7521 10.12V10.183C46.7521 11.464 47.5291 13.144 49.9861 13.144H50.1961C52.7581 13.144 53.3461 11.38 53.3461 10.183ZM64.6163 0.102999V3.043H60.4373V0.102999H64.6163ZM64.5743 4.345V16H60.4793V4.345H64.5743ZM72.1622 0.102999V16H68.0672V0.102999H72.1622ZM82.3961 6.76C80.2751 6.76 79.4771 7.621 79.2671 8.839H85.4411C85.4411 7.978 85.0211 6.76 82.3961 6.76ZM85.5251 12.367H89.7881C89.7881 13.333 89.0321 16.273 83.0051 16.273H82.2281C76.4741 16.273 75.0461 13.123 75.0461 10.33V10.036C75.0461 7.411 76.3481 4.093 81.8711 4.093H82.7951C88.7591 4.093 89.8301 7.411 89.8301 10.666V11.044H79.2251C79.3931 12.388 80.2541 13.48 82.7531 13.48C85.1261 13.48 85.4201 12.556 85.5251 12.367ZM104.207 13.669C106.601 13.669 107.42 12.157 107.42 11.275V10.372C107.063 10.519 106.034 10.729 104.858 10.918C102.884 11.254 102.254 11.527 102.254 12.346V12.388C102.254 13.123 102.779 13.669 104.207 13.669ZM107.546 14.383C107.042 14.992 105.782 16.231 103.052 16.231H102.716C99.4609 16.231 98.1169 14.467 98.1169 12.535V12.451C98.1169 10.435 99.3979 9.196 103.346 8.86L106.538 8.587C107.189 8.524 107.42 8.314 107.42 7.831C107.42 7.285 107.252 6.697 104.984 6.697C102.842 6.697 102.632 7.537 102.632 7.978H98.4319V7.936C98.4319 6.781 98.8939 4.072 104.627 4.072H105.278C111.053 4.072 111.41 6.445 111.41 7.999V11.842C111.41 12.577 111.557 12.871 112.376 12.871H112.817V16H109.499C108.281 16 107.714 15.139 107.546 14.383ZM125.862 10.183V10.12C125.862 8.86 125.274 7.159 122.712 7.159H122.502C120.045 7.159 119.268 8.776 119.268 10.12V10.183C119.268 11.464 120.045 13.144 122.502 13.144H122.712C125.274 13.144 125.862 11.38 125.862 10.183ZM115.194 20.011V4.345H119.247V5.836C119.751 5.29 121.284 4.114 123.93 4.114H124.203C128.655 4.114 130.104 7.159 130.104 9.931V10.288C130.104 12.829 128.613 16.231 124.182 16.231H123.888C121.221 16.231 119.793 15.013 119.289 14.509V20.011H115.194ZM143.663 10.183V10.12C143.663 8.86 143.075 7.159 140.513 7.159H140.303C137.846 7.159 137.069 8.776 137.069 10.12V10.183C137.069 11.464 137.846 13.144 140.303 13.144H140.513C143.075 13.144 143.663 11.38 143.663 10.183ZM132.995 20.011V4.345H137.048V5.836C137.552 5.29 139.085 4.114 141.731 4.114H142.004C146.456 4.114 147.905 7.159 147.905 9.931V10.288C147.905 12.829 146.414 16.231 141.983 16.231H141.689C139.022 16.231 137.594 15.013 137.09 14.509V20.011H132.995ZM156.949 16.273H156.403C150.67 16.273 150.166 13.543 150.166 12.556V12.451H154.555C154.618 12.85 154.807 13.69 156.886 13.69H156.928C158.755 13.69 159.175 13.144 159.175 12.577C159.175 11.989 158.902 11.569 156.949 11.464L155.353 11.338C151.594 11.107 150.229 9.784 150.229 7.852V7.726C150.229 5.731 151.321 4.072 156.256 4.072H156.823C162.472 4.072 163.144 6.13 163.144 7.642V7.705H158.86C158.734 7.285 158.545 6.571 156.634 6.571H156.571C154.807 6.571 154.345 6.949 154.345 7.537C154.345 8.188 154.765 8.566 156.445 8.629L158.041 8.692C162.241 8.86 163.396 10.183 163.396 12.136V12.283C163.396 14.236 162.556 16.273 156.949 16.273Z" fill="#EBEBEB"/>
</svg>
