<svg width="253" height="21" viewBox="0 0 253 21" fill="none" xmlns="http://www.w3.org/2000/svg">
<path d="M9.32902 16.273H8.72002C1.39102 16.273 0.551023 12.955 0.551023 11.086V10.855H5.25502C5.31802 11.548 5.61202 13.102 8.93002 13.102H9.07702C12.332 13.102 12.752 12.136 12.752 11.233C12.752 10.288 12.143 9.721 9.56002 9.616L7.48102 9.553C2.35702 9.385 0.719023 7.348 0.719023 4.996V4.807C0.719023 2.371 2.02102 0.187 8.48902 0.187H9.20302C16.112 0.187 17.057 2.707 17.057 4.765V4.996H12.416C12.311 4.303 11.933 3.274 8.90902 3.274H8.69902C5.92702 3.274 5.27602 3.799 5.27602 4.66C5.27602 5.458 5.84302 6.046 8.30002 6.151L10.463 6.235C16.028 6.466 17.372 8.272 17.372 10.813V11.065C17.372 13.354 16.322 16.273 9.32902 16.273ZM27.1539 6.76C25.0329 6.76 24.2349 7.621 24.0249 8.839H30.1989C30.1989 7.978 29.7789 6.76 27.1539 6.76ZM30.2829 12.367H34.5459C34.5459 13.333 33.7899 16.273 27.7629 16.273H26.9859C21.2319 16.273 19.8039 13.123 19.8039 10.33V10.036C19.8039 7.411 21.1059 4.093 26.6289 4.093H27.5529C33.5169 4.093 34.5879 7.411 34.5879 10.666V11.044H23.9829C24.1509 12.388 25.0119 13.48 27.5109 13.48C29.8839 13.48 30.1779 12.556 30.2829 12.367ZM44.7004 16.315H44.0494C37.7704 16.315 36.8044 12.493 36.8044 10.372V10.078C36.8044 7.978 37.7704 4.03 44.0284 4.03H44.7214C51.1894 4.03 51.9454 7.999 51.9454 10.057V10.393C51.9454 12.493 51.1894 16.315 44.7004 16.315ZM44.2594 13.249H44.4904C47.0734 13.249 47.7244 11.401 47.7244 10.12C47.7244 8.797 47.0734 7.033 44.4904 7.033H44.2594C41.5714 7.033 41.0254 8.797 41.0254 10.12C41.0254 11.401 41.5714 13.249 44.2594 13.249ZM60.8328 16V4.345H74.3148V16H70.2198V7.453H64.9278V16H60.8328ZM88.4208 10.183V10.12C88.4208 8.86 87.8328 7.159 85.2708 7.159H85.0608C82.6038 7.159 81.8268 8.776 81.8268 10.12V10.183C81.8268 11.464 82.6038 13.144 85.0608 13.144H85.2708C87.8328 13.144 88.4208 11.38 88.4208 10.183ZM77.7528 20.011V4.345H81.8058V5.836C82.3098 5.29 83.8428 4.114 86.4888 4.114H86.7618C91.2138 4.114 92.6628 7.159 92.6628 9.931V10.288C92.6628 12.829 91.1718 16.231 86.7408 16.231H86.4468C83.7798 16.231 82.3518 15.013 81.8478 14.509V20.011H77.7528ZM102.82 16.315H102.169C95.8895 16.315 94.9235 12.493 94.9235 10.372V10.078C94.9235 7.978 95.8895 4.03 102.148 4.03H102.841C109.309 4.03 110.065 7.999 110.065 10.057V10.393C110.065 12.493 109.309 16.315 102.82 16.315ZM102.379 13.249H102.61C105.193 13.249 105.844 11.401 105.844 10.12C105.844 8.797 105.193 7.033 102.61 7.033H102.379C99.6905 7.033 99.1445 8.797 99.1445 10.12C99.1445 11.401 99.6905 13.249 102.379 13.249ZM111.608 18.478V12.892H113.015C113.813 11.296 113.939 7.831 114.044 4.345H126.371V12.892H128.471V18.478H124.586V16H115.493V18.478H111.608ZM116.879 12.892H122.276V7.453H117.719C117.656 8.965 117.446 11.275 116.879 12.892ZM140.526 16H130.908V4.345H140.106C142.773 4.345 144.453 5.29 144.453 7.138V7.243C144.453 8.692 143.529 9.553 142.122 9.784C143.55 9.952 144.831 10.96 144.831 12.64V12.724C144.831 14.845 143.445 16 140.526 16ZM135.003 8.986H138.762C139.749 8.986 140.253 8.608 140.253 7.873V7.768C140.253 7.096 139.791 6.697 138.762 6.697H135.003V8.986ZM135.003 13.648H138.93C140.022 13.648 140.631 13.291 140.631 12.472V12.304C140.631 11.569 140.127 11.107 138.93 11.107H135.003V13.648ZM157.511 8.944L151.883 16H147.683V4.345H151.778V11.401L157.406 4.345H161.606V16H157.511V8.944ZM172.321 16V10.855L167.995 16H163.312L168.583 9.763L163.543 4.345H168.373L172.321 8.776V4.345H176.416V8.776L180.364 4.345H185.089L180.217 9.574L185.614 16H180.742L176.416 10.855V16H172.321ZM193.554 6.76C191.433 6.76 190.635 7.621 190.425 8.839H196.599C196.599 7.978 196.179 6.76 193.554 6.76ZM196.683 12.367H200.946C200.946 13.333 200.19 16.273 194.163 16.273H193.386C187.632 16.273 186.204 13.123 186.204 10.33V10.036C186.204 7.411 187.506 4.093 193.029 4.093H193.953C199.917 4.093 200.988 7.411 200.988 10.666V11.044H190.383C190.551 12.388 191.412 13.48 193.911 13.48C196.284 13.48 196.578 12.556 196.683 12.367ZM207.888 16H203.793V4.345H207.888V8.587H213.6V4.345H217.695V16H213.6V11.695H207.888V16ZM230.929 8.944L225.301 16H221.101V4.345H225.196V11.401L230.824 4.345H235.024V16H230.929V8.944ZM245.213 6.76C243.092 6.76 242.294 7.621 242.084 8.839H248.258C248.258 7.978 247.838 6.76 245.213 6.76ZM248.342 12.367H252.605C252.605 13.333 251.849 16.273 245.822 16.273H245.045C239.291 16.273 237.863 13.123 237.863 10.33V10.036C237.863 7.411 239.165 4.093 244.688 4.093H245.612C251.576 4.093 252.647 7.411 252.647 10.666V11.044H242.042C242.21 12.388 243.071 13.48 245.57 13.48C247.943 13.48 248.237 12.556 248.342 12.367Z" fill="#EBEBEB"/>
</svg>
