<svg width="269" height="22" viewBox="0 0 269 22" fill="none" xmlns="http://www.w3.org/2000/svg">
<path d="M11.4491 12.002H5.19111V17H0.865106V1.376H11.4491C16.3841 1.376 17.9171 3.539 17.9171 6.563V6.794C17.9171 9.755 16.3211 12.002 11.4491 12.002ZM5.19111 4.862V8.516H11.1341C12.7301 8.516 13.4231 7.844 13.4231 6.731V6.647C13.4231 5.555 12.7301 4.862 11.1341 4.862H5.19111ZM25.6801 14.669C28.0741 14.669 28.8931 13.157 28.8931 12.275V11.372C28.5361 11.519 27.5071 11.729 26.3311 11.918C24.3571 12.254 23.7271 12.527 23.7271 13.346V13.388C23.7271 14.123 24.2521 14.669 25.6801 14.669ZM29.0191 15.383C28.5151 15.992 27.2551 17.231 24.5251 17.231H24.1891C20.9341 17.231 19.5901 15.467 19.5901 13.535V13.451C19.5901 11.435 20.8711 10.196 24.8191 9.86L28.0111 9.587C28.6621 9.524 28.8931 9.314 28.8931 8.831C28.8931 8.285 28.7251 7.697 26.4571 7.697C24.3151 7.697 24.1051 8.537 24.1051 8.978H19.9051V8.936C19.9051 7.781 20.3671 5.072 26.1001 5.072H26.7511C32.5261 5.072 32.8831 7.445 32.8831 8.999V12.842C32.8831 13.577 33.0301 13.871 33.8491 13.871H34.2901V17H30.9721C29.7541 17 29.1871 16.139 29.0191 15.383ZM49.7083 13.556V13.682C49.7083 16.013 47.7553 17.315 43.2823 17.315H42.9043C38.1163 17.315 36.0373 15.53 36.0373 13.115V12.947H40.4263C40.4893 14.249 41.6863 14.732 43.1143 14.732C44.6473 14.732 45.4873 14.27 45.4873 13.346V13.283C45.4873 12.422 44.8153 12.212 43.6393 12.212H40.8673V9.713H43.6393C44.5423 9.713 45.1093 9.356 45.1093 8.684V8.621C45.1093 7.928 44.4163 7.571 43.0093 7.571C41.4343 7.571 40.5943 7.949 40.5313 8.768H36.1423V8.705C36.1423 6.206 39.0613 5.03 42.8623 5.03H43.1983C47.1253 5.03 49.3303 5.975 49.3303 8.159V8.243C49.3303 10.007 47.9863 10.679 47.0203 10.91C48.1963 11.141 49.7083 11.708 49.7083 13.556ZM63.2699 11.183V11.12C63.2699 9.86 62.6819 8.159 60.1199 8.159H59.9099C57.4529 8.159 56.6759 9.776 56.6759 11.12V11.183C56.6759 12.464 57.4529 14.144 59.9099 14.144H60.1199C62.6819 14.144 63.2699 12.38 63.2699 11.183ZM52.6019 21.011V5.345H56.6549V6.836C57.1589 6.29 58.6919 5.114 61.3379 5.114H61.6109C66.0629 5.114 67.5119 8.159 67.5119 10.931V11.288C67.5119 13.829 66.0209 17.231 61.5899 17.231H61.2959C58.6289 17.231 57.2009 16.013 56.6969 15.509V21.011H52.6019ZM75.7601 14.669C78.1541 14.669 78.9731 13.157 78.9731 12.275V11.372C78.6161 11.519 77.5871 11.729 76.4111 11.918C74.4371 12.254 73.8071 12.527 73.8071 13.346V13.388C73.8071 14.123 74.3321 14.669 75.7601 14.669ZM79.0991 15.383C78.5951 15.992 77.3351 17.231 74.6051 17.231H74.2691C71.0141 17.231 69.6701 15.467 69.6701 13.535V13.451C69.6701 11.435 70.9511 10.196 74.8991 9.86L78.0911 9.587C78.7421 9.524 78.9731 9.314 78.9731 8.831C78.9731 8.285 78.8051 7.697 76.5371 7.697C74.3951 7.697 74.1851 8.537 74.1851 8.978H69.9851V8.936C69.9851 7.781 70.4471 5.072 76.1801 5.072H76.8311C82.6061 5.072 82.9631 7.445 82.9631 8.999V12.842C82.9631 13.577 83.1101 13.871 83.9291 13.871H84.3701V17H81.0521C79.8341 17 79.2671 16.139 79.0991 15.383ZM101.258 11.309V11.582C101.258 15.95 97.9404 17.315 93.9714 17.315H93.5514C89.4564 17.315 86.1174 15.719 86.1174 10.175V8.936C86.1174 3.329 88.9104 1.481 94.3704 1.481H95.3154C96.6174 1.481 96.7014 1.355 96.7434 1.103H100.754C100.754 3.56 99.8304 4.589 96.9744 4.589H94.3704C91.3464 4.589 90.1914 5.534 90.1284 7.655C91.1994 6.542 92.8374 5.786 95.4204 5.786H95.5464C98.3184 5.786 101.258 7.193 101.258 11.309ZM93.5934 14.249H93.8244C95.6724 14.249 97.0374 13.325 97.0374 11.414C97.0374 9.566 95.6514 8.663 93.8454 8.663H93.5934C91.5774 8.663 90.3384 9.524 90.3384 11.435C90.3384 13.367 91.5984 14.249 93.5934 14.249ZM111.384 17.315H110.733C104.454 17.315 103.488 13.493 103.488 11.372V11.078C103.488 8.978 104.454 5.03 110.712 5.03H111.405C117.873 5.03 118.629 8.999 118.629 11.057V11.393C118.629 13.493 117.873 17.315 111.384 17.315ZM110.943 14.249H111.174C113.757 14.249 114.408 12.401 114.408 11.12C114.408 9.797 113.757 8.033 111.174 8.033H110.943C108.255 8.033 107.709 9.797 107.709 11.12C107.709 12.401 108.255 14.249 110.943 14.249ZM124.682 17V8.453H120.167V5.345H133.292V8.453H128.777V17H124.682ZM144.187 17L139.651 11.603V17H135.556V5.345H139.651V10.007L143.809 5.345H148.534L143.662 10.574L149.059 17H144.187ZM155.843 14.669C158.237 14.669 159.056 13.157 159.056 12.275V11.372C158.699 11.519 157.67 11.729 156.494 11.918C154.52 12.254 153.89 12.527 153.89 13.346V13.388C153.89 14.123 154.415 14.669 155.843 14.669ZM159.182 15.383C158.678 15.992 157.418 17.231 154.688 17.231H154.352C151.097 17.231 149.753 15.467 149.753 13.535V13.451C149.753 11.435 151.034 10.196 154.982 9.86L158.174 9.587C158.825 9.524 159.056 9.314 159.056 8.831C159.056 8.285 158.888 7.697 156.62 7.697C154.478 7.697 154.268 8.537 154.268 8.978H150.068V8.936C150.068 7.781 150.53 5.072 156.263 5.072H156.914C162.689 5.072 163.046 7.445 163.046 8.999V12.842C163.046 13.577 163.193 13.871 164.012 13.871H164.453V17H161.135C159.917 17 159.35 16.139 159.182 15.383ZM182.603 12.422H186.887C186.887 14.186 185.837 17.315 180.23 17.315H179.201C173.384 17.315 172.292 13.535 172.292 11.33V11.036C172.292 8.831 173.321 5.03 179.18 5.03H180.146C185.774 5.03 186.887 8.096 186.887 9.776V9.797H182.603C182.54 9.461 182.141 8.012 179.726 8.012H179.516C177.101 8.012 176.534 9.671 176.534 11.078V11.099C176.534 12.548 177.227 14.27 179.6 14.27H179.81C182.246 14.27 182.603 12.695 182.603 12.422ZM195.177 14.669C197.571 14.669 198.39 13.157 198.39 12.275V11.372C198.033 11.519 197.004 11.729 195.828 11.918C193.854 12.254 193.224 12.527 193.224 13.346V13.388C193.224 14.123 193.749 14.669 195.177 14.669ZM198.516 15.383C198.012 15.992 196.752 17.231 194.022 17.231H193.686C190.431 17.231 189.087 15.467 189.087 13.535V13.451C189.087 11.435 190.368 10.196 194.316 9.86L197.508 9.587C198.159 9.524 198.39 9.314 198.39 8.831C198.39 8.285 198.222 7.697 195.954 7.697C193.812 7.697 193.602 8.537 193.602 8.978H189.402V8.936C189.402 7.781 189.864 5.072 195.597 5.072H196.248C202.023 5.072 202.38 7.445 202.38 8.999V12.842C202.38 13.577 202.527 13.871 203.346 13.871H203.787V17H200.469C199.251 17 198.684 16.139 198.516 15.383ZM215.95 9.944L210.322 17H206.122V5.345H210.217V12.401L215.845 5.345H220.045V17H215.95V9.944ZM213.346 4.148H212.716C209.377 4.148 208.789 1.88 208.789 0.788V0.724999H211.876C211.876 0.997999 212.002 1.838 213.052 1.838C214.039 1.838 214.186 0.997999 214.186 0.724999H217.231V0.788C217.231 1.88 216.391 4.148 213.346 4.148ZM226.79 17V8.453H222.275V5.345H235.4V8.453H230.885V17H226.79ZM244.93 17.315H244.279C238 17.315 237.034 13.493 237.034 11.372V11.078C237.034 8.978 238 5.03 244.258 5.03H244.951C251.419 5.03 252.175 8.999 252.175 11.057V11.393C252.175 13.493 251.419 17.315 244.93 17.315ZM244.489 14.249H244.72C247.303 14.249 247.954 12.401 247.954 11.12C247.954 9.797 247.303 8.033 244.72 8.033H244.489C241.801 8.033 241.255 9.797 241.255 11.12C241.255 12.401 241.801 14.249 244.489 14.249ZM264.611 17H254.993V5.345H264.191C266.858 5.345 268.538 6.29 268.538 8.138V8.243C268.538 9.692 267.614 10.553 266.207 10.784C267.635 10.952 268.916 11.96 268.916 13.64V13.724C268.916 15.845 267.53 17 264.611 17ZM259.088 9.986H262.847C263.834 9.986 264.338 9.608 264.338 8.873V8.768C264.338 8.096 263.876 7.697 262.847 7.697H259.088V9.986ZM259.088 14.648H263.015C264.107 14.648 264.716 14.291 264.716 13.472V13.304C264.716 12.569 264.212 12.107 263.015 12.107H259.088V14.648Z" fill="#EBEBEB"/>
</svg>
