<svg width="197" height="21" viewBox="0 0 197 21" fill="none" xmlns="http://www.w3.org/2000/svg">
<path d="M10.5995 11.002H4.3415V16H0.0154963V0.376H10.5995C15.5345 0.376 17.0675 2.539 17.0675 5.563V5.794C17.0675 8.755 15.4715 11.002 10.5995 11.002ZM4.3415 3.862V7.516H10.2845C11.8805 7.516 12.5735 6.844 12.5735 5.731V5.647C12.5735 4.555 11.8805 3.862 10.2845 3.862H4.3415ZM24.8304 13.669C27.2244 13.669 28.0434 12.157 28.0434 11.275V10.372C27.6864 10.519 26.6574 10.729 25.4814 10.918C23.5074 11.254 22.8774 11.527 22.8774 12.346V12.388C22.8774 13.123 23.4024 13.669 24.8304 13.669ZM28.1694 14.383C27.6654 14.992 26.4054 16.231 23.6754 16.231H23.3394C20.0844 16.231 18.7404 14.467 18.7404 12.535V12.451C18.7404 10.435 20.0214 9.196 23.9694 8.86L27.1614 8.587C27.8124 8.524 28.0434 8.314 28.0434 7.831C28.0434 7.285 27.8754 6.697 25.6074 6.697C23.4654 6.697 23.2554 7.537 23.2554 7.978H19.0554V7.936C19.0554 6.781 19.5174 4.072 25.2504 4.072H25.9014C31.6764 4.072 32.0334 6.445 32.0334 7.999V11.842C32.0334 12.577 32.1804 12.871 32.9994 12.871H33.4404V16H30.1224C28.9044 16 28.3374 15.139 28.1694 14.383ZM48.8587 12.556V12.682C48.8587 15.013 46.9057 16.315 42.4327 16.315H42.0547C37.2667 16.315 35.1877 14.53 35.1877 12.115V11.947H39.5767C39.6397 13.249 40.8367 13.732 42.2647 13.732C43.7977 13.732 44.6377 13.27 44.6377 12.346V12.283C44.6377 11.422 43.9657 11.212 42.7897 11.212H40.0177V8.713H42.7897C43.6927 8.713 44.2597 8.356 44.2597 7.684V7.621C44.2597 6.928 43.5667 6.571 42.1597 6.571C40.5847 6.571 39.7447 6.949 39.6817 7.768H35.2927V7.705C35.2927 5.206 38.2117 4.03 42.0127 4.03H42.3487C46.2757 4.03 48.4807 4.975 48.4807 7.159V7.243C48.4807 9.007 47.1367 9.679 46.1707 9.91C47.3467 10.141 48.8587 10.708 48.8587 12.556ZM62.4203 10.183V10.12C62.4203 8.86 61.8323 7.159 59.2703 7.159H59.0603C56.6033 7.159 55.8263 8.776 55.8263 10.12V10.183C55.8263 11.464 56.6033 13.144 59.0603 13.144H59.2703C61.8323 13.144 62.4203 11.38 62.4203 10.183ZM51.7523 20.011V4.345H55.8053V5.836C56.3093 5.29 57.8423 4.114 60.4883 4.114H60.7613C65.2133 4.114 66.6623 7.159 66.6623 9.931V10.288C66.6623 12.829 65.1713 16.231 60.7403 16.231H60.4463C57.7793 16.231 56.3513 15.013 55.8473 14.509V20.011H51.7523ZM74.9105 13.669C77.3045 13.669 78.1235 12.157 78.1235 11.275V10.372C77.7665 10.519 76.7375 10.729 75.5615 10.918C73.5875 11.254 72.9575 11.527 72.9575 12.346V12.388C72.9575 13.123 73.4825 13.669 74.9105 13.669ZM78.2495 14.383C77.7455 14.992 76.4855 16.231 73.7555 16.231H73.4195C70.1645 16.231 68.8205 14.467 68.8205 12.535V12.451C68.8205 10.435 70.1015 9.196 74.0495 8.86L77.2415 8.587C77.8925 8.524 78.1235 8.314 78.1235 7.831C78.1235 7.285 77.9555 6.697 75.6875 6.697C73.5455 6.697 73.3355 7.537 73.3355 7.978H69.1355V7.936C69.1355 6.781 69.5975 4.072 75.3305 4.072H75.9815C81.7565 4.072 82.1135 6.445 82.1135 7.999V11.842C82.1135 12.577 82.2605 12.871 83.0795 12.871H83.5205V16H80.2025C78.9845 16 78.4175 15.139 78.2495 14.383ZM100.409 10.309V10.582C100.409 14.95 97.0908 16.315 93.1218 16.315H92.7018C88.6068 16.315 85.2678 14.719 85.2678 9.175V7.936C85.2678 2.329 88.0608 0.481 93.5208 0.481H94.4658C95.7678 0.481 95.8518 0.354999 95.8938 0.102999H99.9048C99.9048 2.56 98.9808 3.589 96.1248 3.589H93.5208C90.4968 3.589 89.3418 4.534 89.2788 6.655C90.3498 5.542 91.9878 4.786 94.5708 4.786H94.6968C97.4688 4.786 100.409 6.193 100.409 10.309ZM92.7438 13.249H92.9748C94.8228 13.249 96.1878 12.325 96.1878 10.414C96.1878 8.566 94.8018 7.663 92.9958 7.663H92.7438C90.7278 7.663 89.4888 8.524 89.4888 10.435C89.4888 12.367 90.7488 13.249 92.7438 13.249ZM110.534 16.315H109.883C103.604 16.315 102.638 12.493 102.638 10.372V10.078C102.638 7.978 103.604 4.03 109.862 4.03H110.555C117.023 4.03 117.779 7.999 117.779 10.057V10.393C117.779 12.493 117.023 16.315 110.534 16.315ZM110.093 13.249H110.324C112.907 13.249 113.558 11.401 113.558 10.12C113.558 8.797 112.907 7.033 110.324 7.033H110.093C107.405 7.033 106.859 8.797 106.859 10.12C106.859 11.401 107.405 13.249 110.093 13.249ZM123.832 16V7.453H119.317V4.345H132.442V7.453H127.927V16H123.832ZM143.337 16L138.801 10.603V16H134.706V4.345H138.801V9.007L142.959 4.345H147.684L142.812 9.574L148.209 16H143.337ZM154.994 13.669C157.388 13.669 158.207 12.157 158.207 11.275V10.372C157.85 10.519 156.821 10.729 155.645 10.918C153.671 11.254 153.041 11.527 153.041 12.346V12.388C153.041 13.123 153.566 13.669 154.994 13.669ZM158.333 14.383C157.829 14.992 156.569 16.231 153.839 16.231H153.503C150.248 16.231 148.904 14.467 148.904 12.535V12.451C148.904 10.435 150.185 9.196 154.133 8.86L157.325 8.587C157.976 8.524 158.207 8.314 158.207 7.831C158.207 7.285 158.039 6.697 155.771 6.697C153.629 6.697 153.419 7.537 153.419 7.978H149.219V7.936C149.219 6.781 149.681 4.072 155.414 4.072H156.065C161.84 4.072 162.197 6.445 162.197 7.999V11.842C162.197 12.577 162.344 12.871 163.163 12.871H163.604V16H160.286C159.068 16 158.501 15.139 158.333 14.383ZM183.139 9.889L180.304 3.526L177.553 9.889H183.139ZM185.869 16L184.588 13.102H176.146L174.886 16H170.539L177.469 0.376H183.265L190.51 16H185.869ZM196.992 0.376V16H192.666V0.376H196.992Z" fill="#EBEBEB"/>
</svg>
