<svg width="217" height="17" viewBox="0 0 217 17" fill="none" xmlns="http://www.w3.org/2000/svg">
<path d="M11.0634 11.002H4.80536V16H0.479363V0.376H11.0634C15.9984 0.376 17.5314 2.539 17.5314 5.563V5.794C17.5314 8.755 15.9354 11.002 11.0634 11.002ZM4.80536 3.862V7.516H10.7484C12.3444 7.516 13.0374 6.844 13.0374 5.731V5.647C13.0374 4.555 12.3444 3.862 10.7484 3.862H4.80536ZM26.5753 6.76C24.4543 6.76 23.6563 7.621 23.4463 8.839H29.6203C29.6203 7.978 29.2003 6.76 26.5753 6.76ZM29.7043 12.367H33.9673C33.9673 13.333 33.2113 16.273 27.1843 16.273H26.4073C20.6533 16.273 19.2253 13.123 19.2253 10.33V10.036C19.2253 7.411 20.5273 4.093 26.0503 4.093H26.9743C32.9383 4.093 34.0093 7.411 34.0093 10.666V11.044H23.4043C23.5723 12.388 24.4333 13.48 26.9323 13.48C29.3053 13.48 29.5993 12.556 29.7043 12.367ZM45.4868 16L40.9508 10.603V16H36.8558V4.345H40.9508V9.007L45.1088 4.345H49.8338L44.9618 9.574L50.3588 16H45.4868ZM61.401 16V7.453H56.781C56.781 10.582 56.676 12.325 56.277 13.396C55.836 14.572 55.248 16 52.161 16H50.88V12.955H51.132C51.867 12.955 52.413 12.703 52.644 11.632C52.812 10.729 52.875 9.742 52.875 4.345H65.496V16H61.401ZM74.39 13.669C76.784 13.669 77.603 12.157 77.603 11.275V10.372C77.246 10.519 76.217 10.729 75.041 10.918C73.067 11.254 72.437 11.527 72.437 12.346V12.388C72.437 13.123 72.962 13.669 74.39 13.669ZM77.729 14.383C77.225 14.992 75.965 16.231 73.235 16.231H72.899C69.644 16.231 68.3 14.467 68.3 12.535V12.451C68.3 10.435 69.581 9.196 73.529 8.86L76.721 8.587C77.372 8.524 77.603 8.314 77.603 7.831C77.603 7.285 77.435 6.697 75.167 6.697C73.025 6.697 72.815 7.537 72.815 7.978H68.615V7.936C68.615 6.781 69.077 4.072 74.81 4.072H75.461C81.236 4.072 81.593 6.445 81.593 7.999V11.842C81.593 12.577 81.74 12.871 82.559 12.871H83V16H79.682C78.464 16 77.897 15.139 77.729 14.383ZM89.1153 8.146V16H85.3353V4.345H91.1103L94.5753 11.779L98.0403 4.345H103.605V16H99.5103V8.146L95.8773 16H92.7483L89.1153 8.146ZM112.37 13.669C114.764 13.669 115.583 12.157 115.583 11.275V10.372C115.226 10.519 114.197 10.729 113.021 10.918C111.047 11.254 110.417 11.527 110.417 12.346V12.388C110.417 13.123 110.942 13.669 112.37 13.669ZM115.709 14.383C115.205 14.992 113.945 16.231 111.215 16.231H110.879C107.624 16.231 106.28 14.467 106.28 12.535V12.451C106.28 10.435 107.561 9.196 111.509 8.86L114.701 8.587C115.352 8.524 115.583 8.314 115.583 7.831C115.583 7.285 115.415 6.697 113.147 6.697C111.005 6.697 110.795 7.537 110.795 7.978H106.595V7.936C106.595 6.781 107.057 4.072 112.79 4.072H113.441C119.216 4.072 119.573 6.445 119.573 7.999V11.842C119.573 12.577 119.72 12.871 120.539 12.871H120.98V16H117.662C116.444 16 115.877 15.139 115.709 14.383ZM139.004 16H129.386V4.345H138.584C141.251 4.345 142.931 5.29 142.931 7.138V7.243C142.931 8.692 142.007 9.553 140.6 9.784C142.028 9.952 143.309 10.96 143.309 12.64V12.724C143.309 14.845 141.923 16 139.004 16ZM133.481 8.986H137.24C138.227 8.986 138.731 8.608 138.731 7.873V7.768C138.731 7.096 138.269 6.697 137.24 6.697H133.481V8.986ZM133.481 13.648H137.408C138.5 13.648 139.109 13.291 139.109 12.472V12.304C139.109 11.569 138.605 11.107 137.408 11.107H133.481V13.648ZM161.766 16.231H160.8C153.66 16.231 151.77 11.653 151.77 8.461V7.831C151.77 4.576 153.66 0.144999 160.8 0.144999H161.766C168.318 0.144999 170.502 3.358 170.502 6.319V6.361H166.05C165.987 5.92 165.399 3.715 161.283 3.715C157.461 3.715 156.264 5.857 156.264 7.957V8.251C156.264 10.183 157.503 12.64 161.304 12.64C165.462 12.64 165.987 10.393 166.05 9.889H170.502V9.952C170.502 12.808 168.402 16.231 161.766 16.231ZM173.606 16V0.376H179.36L184.337 10.96L189.461 0.376H194.858V16H190.637V5.773L185.891 16H182.51L177.764 5.773V16H173.606ZM212.189 16V5.5L203.054 16H198.728V0.376H203.054V10.876L212.189 0.376H216.515V16H212.189Z" fill="#EBEBEB"/>
</svg>
