<svg width="227" height="21" viewBox="0 0 227 21" fill="none" xmlns="http://www.w3.org/2000/svg">
<g clip-path="url(#clip0_78_295)">
<path d="M10.4975 20.4499C1.08282 20.4499 0 14.4936 0 10.6447V0.812988H5.31167V10.5149C5.31167 12.7256 5.9321 15.8986 10.8048 15.8986H10.9336C15.8092 15.8986 16.3769 12.7256 16.3769 10.5149V0.812988H21.6623V10.6447C21.6623 14.5202 20.3219 20.4499 11.2438 20.4499H10.4975Z" fill="#EBEBEB"/>
<path d="M31.4632 7.62822V20.1548H26.2803V0.812988H31.747L42.9645 13.2717V0.812988H48.124V20.1548H42.9147L31.4632 7.62822Z" fill="#EBEBEB"/>
<path d="M58.1825 20.1548H52.8679V0.812988H58.1825V20.1548Z" fill="#EBEBEB"/>
<path d="M69.7863 20.1548L60.8955 0.812988H67.0851L73.3245 15.4824L79.5932 0.812988H85.3702L76.7749 20.1548H69.7863Z" fill="#EBEBEB"/>
<path d="M105.633 0.812988V5.02491H93.3069V8.17426H105.247V12.5426H93.3069V15.8986H105.789V20.1548H88.0713V0.812988H105.633Z" fill="#EBEBEB"/>
<path d="M131.217 15.872V17.8732C131.217 19.3313 131.346 19.7209 131.527 20.0338V20.1548H126.034C125.955 20.0249 125.853 19.6619 125.853 18.803V17.215C125.853 14.7179 124.951 13.5757 122.268 13.5757H115.358V20.1548H110.044V0.812988H122.964C130.263 0.812988 131.088 3.88265 131.088 5.98713V6.24982C131.088 8.66718 129.438 10.3053 127.038 10.8514C129.643 11.4505 131.217 13.0355 131.217 15.872ZM115.358 9.18666H122.76C124.925 9.18666 125.516 8.251 125.516 7.12054V7.07037C125.516 5.95171 124.931 5.06623 122.76 5.06623H115.358V9.18666Z" fill="#EBEBEB"/>
<path d="M144.594 20.5C135.592 20.5 134.562 16.3913 134.562 14.0773V13.7821H140.339C140.415 14.641 140.778 16.5655 144.852 16.5655H145.033C149.028 16.5655 149.546 15.3701 149.546 14.2514C149.546 13.0708 148.797 12.3772 145.625 12.2473L143.073 12.1706C136.781 11.961 134.767 9.43739 134.767 6.52416V6.29099C134.767 3.27446 136.368 0.570801 144.311 0.570801H145.189C153.675 0.570801 154.846 3.69063 154.846 6.24081V6.53597H149.142C149.014 5.68001 148.557 4.40492 144.834 4.40492H144.577C141.173 4.40492 140.374 5.05427 140.374 6.1198C140.374 7.10858 141.071 7.83762 144.088 7.96749L146.743 8.0708C153.576 8.36596 155.229 10.5944 155.229 13.7408V14.0537C155.229 16.8902 153.942 20.5029 145.352 20.5029L144.594 20.5Z" fill="#EBEBEB"/>
<path d="M171.012 0.5C179.985 0.5 182.537 5.81287 182.537 10.0455V10.8247C182.537 14.9864 179.985 20.4764 171.012 20.4764H169.877C160.901 20.4764 158.349 14.9864 158.349 10.8247V10.0455C158.349 5.83353 160.901 0.5 169.877 0.5H171.012ZM177.02 10.255C177.02 7.86127 175.85 4.92149 170.445 4.92149C165.08 4.92149 163.869 7.87308 163.869 10.255V10.6181C163.869 12.9587 165.156 16.0283 170.445 16.0283C175.832 16.0283 177.02 12.9587 177.02 10.6181V10.255Z" fill="#EBEBEB"/>
<path d="M203.918 0.812988V5.10165H191.712V8.56387H203.55V12.9913H191.712V20.1548H186.444V0.812988H203.918Z" fill="#EBEBEB"/>
<path d="M214.287 5.23428H206.86V0.806885H227V5.23428H219.573V20.1546H214.287V5.23428Z" fill="#EBEBEB"/>
</g>
<defs>
<clipPath id="clip0_78_295">
<rect width="227" height="20" fill="white" transform="translate(0 0.5)"/>
</clipPath>
</defs>
</svg>
