<svg width="1021" height="114" viewBox="0 0 1021 114" fill="none" xmlns="http://www.w3.org/2000/svg">
<path d="M29.3363 35V12.5L9.76126 35H0.491258V1.52H9.76126V24.02L29.3363 1.52H38.6063V35H29.3363ZM53.6025 35H44.8275V10.025H53.6025V19.115H65.8425V10.025H74.6175V35H65.8425V25.775H53.6025V35ZM89.1174 35H80.3424V10.025H89.1174V19.115H101.357V10.025H110.132V35H101.357V25.775H89.1174V35ZM131.517 35.675H130.122C116.667 35.675 114.597 27.485 114.597 22.94V22.31C114.597 17.81 116.667 9.35 130.077 9.35H131.562C145.422 9.35 147.042 17.855 147.042 22.265V22.985C147.042 27.485 145.422 35.675 131.517 35.675ZM130.572 29.105H131.067C136.602 29.105 137.997 25.145 137.997 22.4C137.997 19.565 136.602 15.785 131.067 15.785H130.572C124.812 15.785 123.642 19.565 123.642 22.4C123.642 25.145 124.812 29.105 130.572 29.105ZM172.114 35H151.504V10.025H171.214C176.929 10.025 180.529 12.05 180.529 16.01V16.235C180.529 19.34 178.549 21.185 175.534 21.68C178.594 22.04 181.339 24.2 181.339 27.8V27.98C181.339 32.525 178.369 35 172.114 35ZM160.279 19.97H168.334C170.449 19.97 171.529 19.16 171.529 17.585V17.36C171.529 15.92 170.539 15.065 168.334 15.065H160.279V19.97ZM160.279 29.96H168.694C171.034 29.96 172.339 29.195 172.339 27.44V27.08C172.339 25.505 171.259 24.515 168.694 24.515H160.279V29.96ZM197.446 30.005C202.576 30.005 204.331 26.765 204.331 24.875V22.94C203.566 23.255 201.361 23.705 198.841 24.11C194.611 24.83 193.261 25.415 193.261 27.17V27.26C193.261 28.835 194.386 30.005 197.446 30.005ZM204.601 31.535C203.521 32.84 200.821 35.495 194.971 35.495H194.251C187.276 35.495 184.396 31.715 184.396 27.575V27.395C184.396 23.075 187.141 20.42 195.601 19.7L202.441 19.115C203.836 18.98 204.331 18.53 204.331 17.495C204.331 16.325 203.971 15.065 199.111 15.065C194.521 15.065 194.071 16.865 194.071 17.81H185.071V17.72C185.071 15.245 186.061 9.44 198.346 9.44H199.741C212.116 9.44 212.881 14.525 212.881 17.855V26.09C212.881 27.665 213.196 28.295 214.951 28.295H215.896V35H208.786C206.176 35 204.961 33.155 204.601 31.535ZM252.716 28.34V40.31H244.391V35H219.326V10.025H228.101V28.34H239.441V10.025H248.216V28.34H252.716ZM277.438 19.88L265.378 35H256.378V10.025H265.153V25.145L277.213 10.025H286.213V35H277.438V19.88ZM312.997 19.88L300.937 35H291.937V10.025H300.712V25.145L312.772 10.025H321.772V35H312.997V19.88ZM359.809 25.19H368.989C368.989 28.97 366.739 35.675 354.724 35.675H352.519C340.054 35.675 337.714 27.575 337.714 22.85V22.22C337.714 17.495 339.919 9.35 352.474 9.35H354.544C366.604 9.35 368.989 15.92 368.989 19.52V19.565H359.809C359.674 18.845 358.819 15.74 353.644 15.74H353.194C348.019 15.74 346.804 19.295 346.804 22.31V22.355C346.804 25.46 348.289 29.15 353.374 29.15H353.824C359.044 29.15 359.809 25.775 359.809 25.19ZM404.712 35.495H403.407C386.982 35.495 385.092 25.19 385.092 18.53V1.52H394.362V18.305C394.362 22.13 395.442 27.62 403.947 27.62H404.172C412.677 27.62 413.667 22.13 413.667 18.305V1.52H422.892V18.53C422.892 25.235 420.552 35.495 404.712 35.495ZM428.952 35V10.025H437.637V13.985C438.762 12.635 442.047 9.44 447.762 9.44H448.212C455.547 9.44 458.832 14.345 458.832 18.8V35H450.057V21.995C450.057 19.115 448.392 16.325 444.072 16.325C439.887 16.325 437.727 19.25 437.727 22.31V35H428.952ZM473.508 0.934999V7.235H464.553V0.934999H473.508ZM473.418 10.025V35H464.643V10.025H473.418ZM487.472 35L476.402 10.025H486.122L493.142 28.07L500.207 10.025H509.117L498.632 35H487.472ZM526.079 15.2C521.534 15.2 519.824 17.045 519.374 19.655H532.604C532.604 17.81 531.704 15.2 526.079 15.2ZM532.784 27.215H541.919C541.919 29.285 540.299 35.585 527.384 35.585H525.719C513.389 35.585 510.329 28.835 510.329 22.85V22.22C510.329 16.595 513.119 9.485 524.954 9.485H526.934C539.714 9.485 542.009 16.595 542.009 23.57V24.38H519.284C519.644 27.26 521.489 29.6 526.844 29.6C531.929 29.6 532.559 27.62 532.784 27.215ZM555.309 35H546.534V10.025H555.219V14.12C555.804 12.905 558.234 9.485 563.364 9.485H563.634C569.529 9.485 572.139 13.31 572.139 19.16C572.139 20.24 572.139 20.915 572.094 21.995H563.049V21.635C563.049 18.215 562.239 16.325 559.494 16.325C556.749 16.325 555.309 18.485 555.309 21.725V35ZM589.521 35.585H588.351C576.066 35.585 574.986 29.735 574.986 27.62V27.395H584.391C584.526 28.25 584.931 30.05 589.386 30.05H589.476C593.391 30.05 594.291 28.88 594.291 27.665C594.291 26.405 593.706 25.505 589.521 25.28L586.101 25.01C578.046 24.515 575.121 21.68 575.121 17.54V17.27C575.121 12.995 577.461 9.44 588.036 9.44H589.251C601.356 9.44 602.796 13.85 602.796 17.09V17.225H593.616C593.346 16.325 592.941 14.795 588.846 14.795H588.711C584.931 14.795 583.941 15.605 583.941 16.865C583.941 18.26 584.841 19.07 588.441 19.205L591.861 19.34C600.861 19.7 603.336 22.535 603.336 26.72V27.035C603.336 31.22 601.536 35.585 589.521 35.585ZM623.51 35.675H622.115C608.66 35.675 606.59 27.485 606.59 22.94V22.31C606.59 17.81 608.66 9.35 622.07 9.35H623.555C637.415 9.35 639.035 17.855 639.035 22.265V22.985C639.035 27.485 637.415 35.675 623.51 35.675ZM622.565 29.105H623.06C628.595 29.105 629.99 25.145 629.99 22.4C629.99 19.565 628.595 15.785 623.06 15.785H622.565C616.805 15.785 615.635 19.565 615.635 22.4C615.635 25.145 616.805 29.105 622.565 29.105ZM666.806 16.325H655.826V35H647.096V16.325H641.561V10.025H647.096V8C647.096 3.68 648.626 0.934999 654.881 0.934999H661.271V6.38H657.806C656.411 6.38 655.826 6.965 655.826 8.45V10.025H666.806V2.42H675.536V10.025H681.251V16.325H675.536V25.505C675.536 27.44 676.031 28.295 678.146 28.295H681.251V35H673.286C669.191 35 666.806 32.75 666.806 28.25V16.325ZM685.42 17.855H700.225V25.19H685.42V17.855ZM715.37 1.52V35H706.1V1.52H715.37ZM732.949 35V9.17H719.989V1.52H755.134V9.17H742.174V35H732.949ZM791.319 35H770.709V10.025H790.419C796.134 10.025 799.734 12.05 799.734 16.01V16.235C799.734 19.34 797.754 21.185 794.739 21.68C797.799 22.04 800.544 24.2 800.544 27.8V27.98C800.544 32.525 797.574 35 791.319 35ZM779.484 19.97H787.539C789.654 19.97 790.734 19.16 790.734 17.585V17.36C790.734 15.92 789.744 15.065 787.539 15.065H779.484V19.97ZM779.484 29.96H787.899C790.239 29.96 791.544 29.195 791.544 27.44V27.08C791.544 25.505 790.464 24.515 787.899 24.515H779.484V29.96ZM816.652 30.005C821.782 30.005 823.537 26.765 823.537 24.875V22.94C822.772 23.255 820.567 23.705 818.047 24.11C813.817 24.83 812.467 25.415 812.467 27.17V27.26C812.467 28.835 813.592 30.005 816.652 30.005ZM823.807 31.535C822.727 32.84 820.027 35.495 814.177 35.495H813.457C806.482 35.495 803.602 31.715 803.602 27.575V27.395C803.602 23.075 806.347 20.42 814.807 19.7L821.647 19.115C823.042 18.98 823.537 18.53 823.537 17.495C823.537 16.325 823.177 15.065 818.317 15.065C813.727 15.065 813.277 16.865 813.277 17.81H804.277V17.72C804.277 15.245 805.267 9.44 817.552 9.44H818.947C831.322 9.44 832.087 14.525 832.087 17.855V26.09C832.087 27.665 832.402 28.295 834.157 28.295H835.102V35H827.992C825.382 35 824.167 33.155 823.807 31.535ZM838.531 35V10.025H847.306V28.34H855.046V10.025H863.821V28.34H871.561V10.025H880.336V35H838.531ZM897.476 35V10.025H926.366V35H917.591V16.685H906.251V35H897.476ZM933.958 43.595V37.34H939.448C940.303 37.34 940.753 36.98 940.753 36.305V36.26C940.753 35.72 940.618 35.225 939.943 33.83L929.233 10.025H938.863L945.793 27.935L952.678 10.025H961.498L950.068 37.52C948.313 41.615 946.153 43.595 942.013 43.595H933.958ZM971.529 35V16.685H961.854V10.025H989.979V16.685H980.304V35H971.529ZM993.166 35V10.025H1001.94V17.18H1008.78C1017.33 17.18 1020.66 20.96 1020.66 25.73V26.27C1020.66 31.49 1017.33 35 1008.78 35H993.166ZM1001.94 29.06H1007.7C1009.5 29.06 1011.66 28.52 1011.66 26.09V25.955C1011.66 23.705 1009.5 23.12 1007.7 23.12H1001.94V29.06ZM85.6814 105L75.9614 93.435V105H67.1864V80.025H75.9614V90.015L84.8714 80.025H94.9964L84.5564 91.23L96.1214 105H85.6814ZM130.081 105V86.685H120.181C120.181 93.39 119.956 97.125 119.101 99.42C118.156 101.94 116.896 105 110.281 105H107.536V98.475H108.076C109.651 98.475 110.821 97.935 111.316 95.64C111.676 93.705 111.811 91.59 111.811 80.025H138.856V105H130.081ZM165.609 89.88L153.549 105H144.549V80.025H153.324V95.145L165.384 80.025H174.384V105H165.609V89.88ZM178.038 110.31V98.34H181.053C182.763 94.92 183.033 87.495 183.258 80.025H209.673V98.34H214.173V110.31H205.848V105H186.363V110.31H178.038ZM189.333 98.34H200.898V86.685H191.133C190.998 89.925 190.548 94.875 189.333 98.34ZM231.916 85.2C227.371 85.2 225.661 87.045 225.211 89.655H238.441C238.441 87.81 237.541 85.2 231.916 85.2ZM238.621 97.215H247.756C247.756 99.285 246.136 105.585 233.221 105.585H231.556C219.226 105.585 216.166 98.835 216.166 92.85V92.22C216.166 86.595 218.956 79.485 230.791 79.485H232.771C245.551 79.485 247.846 86.595 247.846 93.57V94.38H225.121C225.481 97.26 227.326 99.6 232.681 99.6C237.766 99.6 238.396 97.62 238.621 97.215ZM275.23 92.535V92.4C275.23 89.7 273.97 86.055 268.48 86.055H268.03C262.765 86.055 261.1 89.52 261.1 92.4V92.535C261.1 95.28 262.765 98.88 268.03 98.88H268.48C273.97 98.88 275.23 95.1 275.23 92.535ZM252.37 113.595V80.025H261.055V83.22C262.135 82.05 265.42 79.53 271.09 79.53H271.675C281.215 79.53 284.32 86.055 284.32 91.995V92.76C284.32 98.205 281.125 105.495 271.63 105.495H271C265.285 105.495 262.225 102.885 261.145 101.805V113.595H252.37ZM309.73 95.19H318.91C318.91 98.97 316.66 105.675 304.645 105.675H302.44C289.975 105.675 287.635 97.575 287.635 92.85V92.22C287.635 87.495 289.84 79.35 302.395 79.35H304.465C316.525 79.35 318.91 85.92 318.91 89.52V89.565H309.73C309.595 88.845 308.74 85.74 303.565 85.74H303.115C297.94 85.74 296.725 89.295 296.725 92.31V92.355C296.725 95.46 298.21 99.15 303.295 99.15H303.745C308.965 99.15 309.73 95.775 309.73 95.19ZM330.465 105V86.685H320.79V80.025H348.915V86.685H339.24V105H330.465ZM372.711 105H352.101V80.025H371.811C377.526 80.025 381.126 82.05 381.126 86.01V86.235C381.126 89.34 379.146 91.185 376.131 91.68C379.191 92.04 381.936 94.2 381.936 97.8V97.98C381.936 102.525 378.966 105 372.711 105ZM360.876 89.97H368.931C371.046 89.97 372.126 89.16 372.126 87.585V87.36C372.126 85.92 371.136 85.065 368.931 85.065H360.876V89.97ZM360.876 99.96H369.291C371.631 99.96 372.936 99.195 372.936 97.44V97.08C372.936 95.505 371.856 94.515 369.291 94.515H360.876V99.96ZM387.704 113.595V107.34H393.194C394.049 107.34 394.499 106.98 394.499 106.305V106.26C394.499 105.72 394.364 105.225 393.689 103.83L382.979 80.025H392.609L399.539 97.935L406.424 80.025H415.244L403.814 107.52C402.059 111.615 399.899 113.595 395.759 113.595H387.704ZM450.164 105H429.554V80.025H449.264C454.979 80.025 458.579 82.05 458.579 86.01V86.235C458.579 89.34 456.599 91.185 453.584 91.68C456.644 92.04 459.389 94.2 459.389 97.8V97.98C459.389 102.525 456.419 105 450.164 105ZM438.329 89.97H446.384C448.499 89.97 449.579 89.16 449.579 87.585V87.36C449.579 85.92 448.589 85.065 446.384 85.065H438.329V89.97ZM438.329 99.96H446.744C449.084 99.96 450.389 99.195 450.389 97.44V97.08C450.389 95.505 449.309 94.515 446.744 94.515H438.329V99.96ZM508.749 98.34V110.31H500.424V105H475.359V80.025H484.134V98.34H495.474V80.025H504.249V98.34H508.749ZM533.472 89.88L521.412 105H512.412V80.025H521.187V95.145L533.247 80.025H542.247V105H533.472V89.88ZM573.621 105.675H572.316V113.46H563.541V105.675H562.236C548.331 105.675 546.711 97.485 546.711 92.985V92.265C546.711 87.855 548.331 79.35 562.191 79.35H563.541V71.52H572.316V79.35H573.666C587.526 79.35 589.146 87.855 589.146 92.265V92.985C589.146 97.485 587.526 105.675 573.621 105.675ZM562.686 99.33H563.541V85.56H562.686C557.151 85.56 555.756 89.115 555.756 92.4C555.756 95.595 557.151 99.33 562.686 99.33ZM573.171 85.56H572.316V99.33H573.171C578.706 99.33 580.101 95.595 580.101 92.4C580.101 89.16 578.706 85.56 573.171 85.56ZM616.543 92.535V92.4C616.543 89.7 615.283 86.055 609.793 86.055H609.343C604.078 86.055 602.413 89.52 602.413 92.4V92.535C602.413 95.28 604.078 98.88 609.343 98.88H609.793C615.283 98.88 616.543 95.1 616.543 92.535ZM593.683 113.595V80.025H602.368V83.22C603.448 82.05 606.733 79.53 612.403 79.53H612.988C622.528 79.53 625.633 86.055 625.633 91.995V92.76C625.633 98.205 622.438 105.495 612.943 105.495H612.313C606.598 105.495 603.538 102.885 602.458 101.805V113.595H593.683ZM645.822 105.675H644.427C630.972 105.675 628.902 97.485 628.902 92.94V92.31C628.902 87.81 630.972 79.35 644.382 79.35H645.867C659.727 79.35 661.347 87.855 661.347 92.265V92.985C661.347 97.485 659.727 105.675 645.822 105.675ZM644.877 99.105H645.372C650.907 99.105 652.302 95.145 652.302 92.4C652.302 89.565 650.907 85.785 645.372 85.785H644.877C639.117 85.785 637.947 89.565 637.947 92.4C637.947 95.145 639.117 99.105 644.877 99.105ZM686.419 105H665.809V80.025H685.519C691.234 80.025 694.834 82.05 694.834 86.01V86.235C694.834 89.34 692.854 91.185 689.839 91.68C692.899 92.04 695.644 94.2 695.644 97.8V97.98C695.644 102.525 692.674 105 686.419 105ZM674.584 89.97H682.639C684.754 89.97 685.834 89.16 685.834 87.585V87.36C685.834 85.92 684.844 85.065 682.639 85.065H674.584V89.97ZM674.584 99.96H682.999C685.339 99.96 686.644 99.195 686.644 97.44V97.08C686.644 95.505 685.564 94.515 682.999 94.515H674.584V99.96ZM715.841 105.675H714.446C700.991 105.675 698.921 97.485 698.921 92.94V92.31C698.921 87.81 700.991 79.35 714.401 79.35H715.886C729.746 79.35 731.366 87.855 731.366 92.265V92.985C731.366 97.485 729.746 105.675 715.841 105.675ZM714.896 99.105H715.391C720.926 99.105 722.321 95.145 722.321 92.4C722.321 89.565 720.926 85.785 715.391 85.785H714.896C709.136 85.785 707.966 89.565 707.966 92.4C707.966 95.145 709.136 99.105 714.896 99.105ZM756.888 89.88L744.828 105H735.828V80.025H744.603V95.145L756.663 80.025H765.663V105H756.888V89.88ZM751.308 77.46H749.958C742.803 77.46 741.543 72.6 741.543 70.26V70.125H748.158C748.158 70.71 748.428 72.51 750.678 72.51C752.793 72.51 753.108 70.71 753.108 70.125H759.633V70.26C759.633 72.6 757.833 77.46 751.308 77.46ZM812.79 92.22V92.85C812.79 97.575 810.45 105.675 797.985 105.675H795.78C783.765 105.675 781.515 98.97 781.515 95.19H790.695C790.695 95.865 791.46 99.375 796.68 99.375H797.13C801.045 99.375 802.89 97.26 803.61 94.83H793.575V89.43H803.475C802.755 87.27 801.045 85.515 797.31 85.515H796.86C791.64 85.515 790.83 88.8 790.695 89.565H781.515V89.52C781.515 85.92 783.9 79.35 795.96 79.35H798.03C810.585 79.35 812.79 87.495 812.79 92.22ZM817.236 105V80.025H846.126V105H837.351V86.685H826.011V105H817.236ZM867.488 105.675H866.093C852.638 105.675 850.568 97.485 850.568 92.94V92.31C850.568 87.81 852.638 79.35 866.048 79.35H867.533C881.393 79.35 883.013 87.855 883.013 92.265V92.985C883.013 97.485 881.393 105.675 867.488 105.675ZM866.543 99.105H867.038C872.573 99.105 873.968 95.145 873.968 92.4C873.968 89.565 872.573 85.785 867.038 85.785H866.543C860.783 85.785 859.613 89.565 859.613 92.4C859.613 95.145 860.783 99.105 866.543 99.105ZM907.015 105L900.31 97.845L893.785 105H883.84L895.045 92.49L883.48 80.025H894.235L900.625 87L906.79 80.025H916.465L905.71 92.31L917.14 105H907.015ZM933.393 85.2C928.848 85.2 927.138 87.045 926.688 89.655H939.918C939.918 87.81 939.018 85.2 933.393 85.2ZM940.098 97.215H949.233C949.233 99.285 947.613 105.585 934.698 105.585H933.033C920.703 105.585 917.643 98.835 917.643 92.85V92.22C917.643 86.595 920.433 79.485 932.268 79.485H934.248C947.028 79.485 949.323 86.595 949.323 93.57V94.38H926.598C926.958 97.26 928.803 99.6 934.158 99.6C939.243 99.6 939.873 97.62 940.098 97.215ZM963.568 96.27V105H953.083V96.27H963.568Z" fill="#EBEBEB"/>
</svg>
